<svg width="75" height="75" viewBox="0 0 75 75" fill="none" xmlns="http://www.w3.org/2000/svg">
<mask id="mask0_1_21" style="mask-type:luminance" maskUnits="userSpaceOnUse" x="-1" y="0" width="76" height="75">
<path d="M74.9996 0H-0.000427246V75H74.9996V0Z" fill="white"/>
</mask>
<g mask="url(#mask0_1_21)">
<path d="M7.31432 1.27783H67.6845C69.2858 1.27783 70.8215 1.91392 71.9537 3.04617C73.086 4.17841 73.7221 5.71407 73.7221 7.31531V67.6853C73.7221 69.2865 73.086 70.822 71.9539 71.9542C70.8217 73.0863 69.2861 73.7224 67.6849 73.7224H7.31345C5.71253 73.7224 4.17717 73.0864 3.04515 71.9544C1.91313 70.8224 1.27716 69.2871 1.27716 67.6862V7.31488C1.27716 6.52208 1.43332 5.73705 1.73671 5.0046C2.04011 4.27215 2.4848 3.60663 3.0454 3.04604C3.606 2.48545 4.27154 2.04076 5.004 1.73737C5.73646 1.43398 6.52151 1.27783 7.31432 1.27783Z" fill="#FDB913"/>
<path d="M67.6859 1.27773C69.2869 1.27822 70.8222 1.9145 71.9541 3.04668C73.0861 4.17886 73.722 5.71423 73.7222 7.31521V67.6852C73.7221 69.2862 73.0861 70.8215 71.9542 71.9537C70.8222 73.0858 69.2869 73.722 67.6859 73.7223H7.31484C6.52197 73.7225 5.73684 73.5664 5.0043 73.2631C4.27176 72.9598 3.60615 72.5151 3.04551 71.9545C2.48488 71.3939 2.04019 70.7283 1.73686 69.9957C1.43353 69.2632 1.2775 68.4781 1.27769 67.6852V7.31521C1.27753 6.52234 1.43357 5.73722 1.73691 5.00468C2.04024 4.27213 2.48492 3.60652 3.04555 3.04587C3.60618 2.48521 4.27177 2.04049 5.0043 1.73711C5.73683 1.43373 6.52196 1.27763 7.31484 1.27773H67.6859ZM67.6859 0H7.31484C5.37537 0.00210079 3.51596 0.773496 2.14459 2.14492C0.773223 3.51635 0.00192454 5.37578 -6.10352e-05 7.31521V67.6852C0.00208506 69.6246 0.773449 71.4839 2.14479 72.8552C3.51614 74.2265 5.37547 74.9979 7.31484 75H67.6859C69.6252 74.9978 71.4843 74.2263 72.8555 72.855C74.2267 71.4837 74.9979 69.6245 74.9999 67.6852V7.31521C74.9981 5.37589 74.2269 3.51651 72.8557 2.14509C71.4845 0.773662 69.6252 0.00220578 67.6859 0Z" fill="white"/>
<path d="M41.7272 38.2821L41.7212 25.3116L45.1069 24.5081V26.2084C45.1069 26.2084 45.9839 23.9723 48.0191 23.4533C48.3231 23.3554 48.6465 23.3336 48.9608 23.39V26.6995C48.3512 26.7074 47.7489 26.8328 47.1868 27.0687C45.9357 27.5628 45.3061 28.6408 45.3061 30.2865L45.3083 37.4485L41.7272 38.2821Z" fill="#231F20"/>
<path d="M23.8793 42.4999C23.8793 42.4999 23.3288 41.6744 23.3288 38.7562V32.2978L21.5867 32.7123V30.0518L23.3327 29.6395V26.7393L26.9327 25.8889V28.7891L29.4766 28.1849V30.8424L26.9327 31.4461C26.9327 31.4461 26.9288 36.7374 26.9327 38.0224C26.9327 41.0125 27.7263 41.5866 27.7263 41.5866L23.8793 42.4999Z" fill="#231F20"/>
<path d="M29.8528 34.7836C29.8528 32.4777 30.1812 30.7954 30.8861 29.5044C31.7249 27.9723 33.1004 26.9739 35.1041 26.5177C39.0536 25.6195 40.479 27.9572 40.4239 31.092C40.4028 32.213 40.408 32.7592 40.408 32.7592L33.4498 34.3945V34.5068C33.4498 36.6969 33.909 37.7362 35.297 37.4419C36.4959 37.1888 36.8295 36.4379 36.9242 35.5091C36.9397 35.3594 36.947 34.9785 36.947 34.9785L40.2065 34.1974C40.2065 34.1974 40.2143 34.4642 40.2096 34.7638C40.1812 36.0084 39.8192 39.0957 35.2888 40.1669C30.9972 41.1856 29.8528 38.5647 29.8528 34.7836ZM35.2488 28.9337C34.0958 29.1954 33.4911 30.3264 33.4649 32.2001L36.965 31.3665C36.9711 31.2818 36.9719 31.095 36.9711 30.8023C36.965 29.3878 36.5278 28.6411 35.2488 28.9337Z" fill="#231F20"/>
<path d="M61.1456 27.1985C61.0108 23.2483 62.0355 20.1131 66.4429 19.1147C69.2519 18.4765 70.3188 19.2072 70.8589 19.9135C71.3783 20.5874 71.5789 21.4963 71.5789 22.7693L71.5819 23.003L68.1338 23.8224C68.1338 23.8224 68.1312 23.3576 68.1312 23.3425C68.1338 21.8328 67.7142 21.2588 66.6176 21.5333C65.3136 21.8608 64.7869 23.0985 64.7869 25.5593C64.7869 26.4329 64.7907 26.5896 64.7907 26.7075C64.7907 29.2083 65.1325 30.3531 66.6353 30.0385C67.9389 29.7691 68.1175 28.6243 68.1385 27.6207C68.1411 27.4632 68.1476 26.9588 68.1476 26.9588L71.5905 26.1455C71.5905 26.1455 71.5939 26.3998 71.5939 26.6825C71.5853 29.9619 69.857 32.0284 66.6189 32.782C62.1578 33.8278 61.2841 31.2499 61.1456 27.1985Z" fill="#231F20"/>
<path d="M49.226 32.7291C49.226 29.7243 50.9861 28.7741 53.6355 27.678C56.018 26.6924 56.0696 26.2031 56.0795 25.3467C56.0928 24.6259 55.7585 24.0092 54.5724 24.3117C54.1768 24.3914 53.8198 24.6023 53.5592 24.9103C53.2986 25.2183 53.1497 25.6054 53.1367 26.0086C53.1173 26.23 53.1098 26.4522 53.1143 26.6744L49.7738 27.4632C49.7514 26.7975 49.8291 26.1322 50.0045 25.4896C50.5386 23.6929 52.1232 22.484 54.8586 21.8509C58.4125 21.032 59.5973 22.5916 59.6016 25.0175V30.7623C59.6016 33.5407 60.1172 33.9478 60.1172 33.9478L56.8378 34.7238C56.6569 34.3448 56.5099 33.9507 56.3984 33.5459C56.3984 33.5459 55.6801 35.3551 53.2038 35.9369C50.6031 36.5502 49.226 34.9385 49.226 32.7291ZM56.0567 28.626C55.504 29.0136 54.9204 29.3553 54.312 29.6477C53.2189 30.1818 52.7248 30.8407 52.7248 31.8554C52.7248 32.7342 53.2692 33.3113 54.2586 33.0669C55.3199 32.7992 56.0567 31.809 56.0567 30.4331V28.626Z" fill="#231F20"/>
<path d="M5.0559 51.5922C4.68162 51.5917 4.31439 51.4904 3.99286 51.2988C3.67134 51.1072 3.40742 50.8324 3.22889 50.5035C3.05036 50.1745 2.96382 49.8035 2.97838 49.4295C2.99294 49.0555 3.10807 48.6924 3.31163 48.3783L3.33487 48.3482L3.37404 48.3379L8.27072 47.1819V50.9006L8.19455 50.9183C7.08378 51.1855 5.7561 51.4898 5.48282 51.5479C5.34246 51.5776 5.19937 51.5924 5.0559 51.5922Z" fill="#231F20"/>
<path d="M5.0559 56.3493C4.5049 56.3495 3.97639 56.1308 3.58653 55.7414C3.19667 55.3521 2.97736 54.8239 2.97681 54.2729C2.97569 53.8714 3.09208 53.4784 3.31164 53.1423L3.33488 53.1075L3.37404 53.0976L8.27072 51.942V55.6608L8.19455 55.6806C7.08378 55.9469 5.75611 56.2547 5.48283 56.3093C5.34216 56.3365 5.19917 56.3499 5.0559 56.3493Z" fill="#231F20"/>
<path d="M5.05591 61.1156C4.50475 61.1153 3.97625 60.8963 3.58644 60.5066C3.19663 60.117 2.97738 59.5886 2.97682 59.0374C2.97527 58.6359 3.09169 58.2428 3.31165 57.9069L3.33488 57.8694L8.27073 56.7062V60.4249L8.19456 60.4447C7.02138 60.727 5.71867 61.0214 5.48283 61.0734C5.34227 61.1016 5.19926 61.1157 5.05591 61.1156Z" fill="#231F20"/>
<path d="M4.4781 47.0354L4.47681 26.2281L8.27047 25.3317V46.1386L4.4781 47.0354Z" fill="#231F20"/>
<path d="M13.9273 45.2652C13.9273 44.6445 13.6807 44.0492 13.2418 43.6103C12.8028 43.1713 12.2075 42.9247 11.5868 42.9247C10.966 42.9247 10.3707 43.1713 9.93174 43.6103C9.49281 44.0492 9.24622 44.6445 9.24622 45.2652L9.25009 64.7126C9.25217 66.392 9.91996 68.0021 11.1071 69.1901C12.2942 70.378 13.9039 71.0468 15.5833 71.0501C17.3551 71.0501 22.2088 71.0415 22.2088 71.0415L22.2109 62.9284C22.2122 58.4957 22.2131 53.9838 22.2131 53.881C22.2137 53.3766 22.0897 52.8799 21.8523 52.435C21.6148 51.99 21.2712 51.6105 20.8518 51.3303L14.9468 47.3198C14.9468 47.3198 14.9455 56.0267 14.9455 56.427C14.9455 56.5605 14.8925 56.6886 14.798 56.783C14.7036 56.8774 14.5755 56.9305 14.442 56.9305C14.3085 56.9305 14.1804 56.8774 14.086 56.783C13.9915 56.6886 13.9385 56.5605 13.9385 56.427C13.9385 56.3293 13.9273 46.4681 13.9273 45.2652Z" fill="#231F20"/>
<path d="M17.0883 30.7556C16.3707 30.9221 15.6976 31.2415 15.1148 31.6921C14.5321 32.1426 14.0534 32.7136 13.7116 33.3661V31.9038L10.2958 32.712L10.2997 42.0507C10.8989 41.8138 11.5519 41.7471 12.1866 41.8581C12.8213 41.969 13.413 42.2533 13.8963 42.6795V36.6498C13.8963 35.2055 14.615 34.0517 15.6418 33.8253C16.4143 33.6558 17.0594 33.9321 17.0594 35.3079L17.062 44.1053L20.6599 43.2618V33.9553C20.6599 31.6989 19.791 30.1217 17.0883 30.7556Z" fill="#231F20"/>
<path d="M69.3628 17.4385C68.9228 17.4389 68.4926 17.3087 68.1266 17.0645C67.7606 16.8204 67.4753 16.4731 67.3067 16.0667C67.1381 15.6603 67.0939 15.2131 67.1795 14.7815C67.2652 14.35 67.477 13.9536 67.788 13.6424C68.0991 13.3312 68.4954 13.1193 68.927 13.0335C69.3585 12.9476 69.8058 12.9917 70.2122 13.1601C70.6187 13.3286 70.9661 13.6138 71.2104 13.9797C71.4547 14.3456 71.585 14.7757 71.5848 15.2157C71.5842 15.8049 71.35 16.3698 70.9334 16.7865C70.5169 17.2032 69.952 17.4377 69.3628 17.4385ZM69.3628 13.2705C68.9782 13.2704 68.6021 13.3844 68.2823 13.598C67.9624 13.8116 67.7131 14.1153 67.5658 14.4706C67.4185 14.8259 67.3799 15.217 67.4549 15.5942C67.5298 15.9715 67.715 16.3181 67.9869 16.5901C68.2588 16.8622 68.6053 17.0475 68.9825 17.1226C69.3598 17.1977 69.7508 17.1593 70.1062 17.0122C70.4616 16.865 70.7654 16.6158 70.9792 16.2961C71.193 15.9763 71.3071 15.6003 71.3072 15.2157C71.3068 14.7001 71.1018 14.2056 70.7373 13.841C70.3728 13.4763 69.8785 13.2711 69.3628 13.2705Z" fill="#231F20"/>
<path d="M68.553 13.8904H69.5114C69.6051 13.8804 69.6998 13.8916 69.7886 13.9233C69.8773 13.9549 69.9578 14.0061 70.024 14.0732C70.0903 14.1402 70.1405 14.2213 70.171 14.3105C70.2016 14.3996 70.2116 14.4945 70.2004 14.588C70.2004 14.9401 70.0442 15.2108 69.7481 15.2568V15.262C70.0175 15.2895 70.1591 15.438 70.1729 15.8197C70.178 15.9919 70.1806 16.2053 70.1888 16.3714C70.1889 16.4182 70.2008 16.4641 70.2232 16.5051C70.2457 16.5461 70.2781 16.5808 70.3175 16.606H69.8277C69.781 16.5342 69.7556 16.4506 69.7546 16.365C69.7395 16.2027 69.7434 16.0495 69.7361 15.8524C69.7287 15.5563 69.6379 15.4268 69.3405 15.4268H68.9859V16.606H68.553V13.8904ZM69.3328 15.0997C69.3917 15.1051 69.451 15.0974 69.5065 15.0771C69.562 15.0568 69.6123 15.0244 69.6538 14.9822C69.6952 14.9401 69.7268 14.8893 69.7463 14.8335C69.7657 14.7777 69.7725 14.7183 69.7662 14.6595C69.7662 14.3699 69.6409 14.2175 69.3556 14.2175H68.9859V15.0997H69.3328Z" fill="#231F20"/>
</g>
</svg>
