<svg width="179" height="38" viewBox="0 0 179 38" fill="none" xmlns="http://www.w3.org/2000/svg">
<path d="M36.8118 23.5984C34.3158 33.7769 24.1755 39.9714 14.1626 37.4331C4.15382 34.8955 -1.9392 24.5858 0.558044 14.4079C3.05295 4.2282 13.1932 -1.96689 23.2032 0.570761C33.2155 3.10841 39.3079 13.4193 36.8118 23.5984Z" fill="#F7931A"/>
<path d="M26.9245 16.2954C27.2966 13.7673 25.4032 12.4082 22.8143 11.5016L23.6541 8.07688L21.6036 7.55735L20.786 10.8918C20.2469 10.7552 19.6933 10.6264 19.1431 10.4988L19.9666 7.14233L17.9173 6.6228L17.0769 10.0463C16.6307 9.943 16.1927 9.84089 15.7675 9.73342L15.7699 9.72273L12.9421 9.00489L12.3966 11.2314C12.3966 11.2314 13.918 11.5859 13.8859 11.6078C14.7163 11.8186 14.8664 12.3773 14.8413 12.8203L13.8847 16.7217C13.9419 16.7366 14.0161 16.758 14.0979 16.7912C14.0295 16.774 13.9565 16.755 13.8812 16.7366L12.5403 22.202C12.4387 22.4585 12.1811 22.8432 11.6006 22.6971C11.6211 22.7274 10.1102 22.3189 10.1102 22.3189L9.09229 24.7052L11.7606 25.3814C12.2571 25.5079 12.7435 25.6403 13.2224 25.765L12.3739 29.2289L14.422 29.7484L15.2624 26.3213C15.8219 26.4757 16.365 26.6182 16.8965 26.7524L16.059 30.1634L18.1094 30.683L18.958 27.2256C22.4545 27.8983 25.0837 27.627 26.1904 24.4119C27.0822 21.8232 26.146 20.3299 24.3064 19.3562C25.6461 19.0421 26.6553 18.1461 26.9245 16.2954ZM22.2396 22.9744C21.6059 25.5631 17.3187 24.1637 15.9287 23.8128L17.0547 19.2238C18.4447 19.5764 22.9019 20.2747 22.2396 22.9744ZM22.8738 16.258C22.2956 18.6128 18.7273 17.4164 17.5698 17.1231L18.5907 12.961C19.7482 13.2543 23.4759 13.8017 22.8738 16.258Z" fill="white"/>
<path d="M54.7644 11.4979C56.2799 11.4979 57.5893 11.774 58.6896 12.316C59.7951 12.8635 60.7073 13.6009 61.4391 14.5283C62.1609 15.4605 62.6982 16.55 63.0451 17.7987C63.3897 19.0509 63.5626 20.3969 63.5626 21.8379C63.5626 24.0513 63.1637 26.1425 62.3583 28.1137C61.553 30.0879 60.4603 31.8002 59.0703 33.2608C57.6815 34.7197 56.0416 35.8697 54.1506 36.7194C52.2625 37.5696 50.2097 37.9948 48.0056 37.9948C47.7206 37.9948 47.2195 37.9864 46.5117 37.9716C45.8039 37.9568 44.9904 37.8825 44.0793 37.7572C43.1624 37.6272 42.1929 37.4348 41.1692 37.1772C40.146 36.9242 39.1742 36.5698 38.259 36.1197L46.4422 1.16264L53.7716 0.0078125L50.8416 12.4128C51.4688 12.1255 52.1007 11.9028 52.7314 11.7407C53.3628 11.581 54.0402 11.4979 54.7644 11.4979ZM48.6165 32.0835C49.7203 32.0835 50.7604 31.8074 51.7375 31.2653C52.7174 30.7226 53.5631 29.9899 54.2715 29.0774C54.9799 28.1606 55.5406 27.1281 55.9494 25.9745C56.3582 24.8208 56.5649 23.6173 56.5649 22.3651C56.5649 20.8267 56.312 19.6268 55.808 18.7593C55.304 17.8954 54.3714 17.4608 53.017 17.4608C52.5732 17.4608 52.0014 17.5469 51.2924 17.7007C50.5811 17.864 49.9445 18.203 49.374 18.713L46.2542 31.8869C46.4422 31.9208 46.6087 31.9528 46.7506 31.9831C46.8896 32.0158 47.0432 32.0389 47.1962 32.055C47.3579 32.0734 47.5431 32.0829 47.7668 32.0829C47.9904 32.0829 48.2702 32.0835 48.6165 32.0835Z" fill="white"/>
<path d="M71.1635 37.3256H64.163L70.0749 12.034H77.1234L71.1635 37.3256ZM74.5701 8.9525C73.593 8.9525 72.7071 8.65682 71.921 8.06427C71.1285 7.47528 70.736 6.56864 70.736 5.34672C70.736 4.6746 70.8704 4.04404 71.1367 3.44911C71.4071 2.85537 71.7604 2.34417 72.2031 1.90955C72.6452 1.4785 73.1574 1.13412 73.739 0.874655C74.3242 0.619347 74.9468 0.491699 75.6102 0.491699C76.5867 0.491699 77.4679 0.787383 78.2569 1.37994C79.043 1.97546 79.4384 2.8821 79.4384 4.09749C79.4384 4.77197 79.3047 5.4049 79.036 5.99864C78.7691 6.59238 78.4158 7.10358 77.9731 7.5382C77.5345 7.96985 77.0177 8.31304 76.4372 8.57013C75.8514 8.82959 75.2312 8.9525 74.5701 8.9525Z" fill="white"/>
<path d="M83.2584 5.73271L90.5907 4.57788L88.7902 12.0329H96.6428L95.2249 17.8979H87.4195L85.3404 26.7446C85.1489 27.482 85.0403 28.1708 85.0099 28.8108C84.9754 29.4538 85.0554 30.006 85.2447 30.4709C85.4327 30.937 85.7709 31.2962 86.2614 31.5503C86.7497 31.8086 87.4487 31.9386 88.3656 31.9386C89.1208 31.9386 89.8566 31.8656 90.5679 31.7207C91.2752 31.5782 91.9918 31.3799 92.7171 31.1205L93.2392 36.6043C92.2931 36.9569 91.2688 37.2603 90.165 37.5156C89.0594 37.7745 87.7507 37.8992 86.2381 37.8992C84.0632 37.8992 82.3772 37.5709 81.1758 36.9172C79.9763 36.2587 79.1283 35.3592 78.6208 34.2204C78.1203 33.0858 77.8966 31.7777 77.9591 30.3041C78.0239 28.8269 78.2429 27.2742 78.6208 25.6391L83.2584 5.73271V5.73271Z" fill="white"/>
<path d="M96.3345 27.2263C96.3345 25.0478 96.6814 22.9935 97.3746 21.0704C98.0667 19.1455 99.0636 17.4622 100.357 16.0176C101.646 14.5802 103.216 13.4414 105.065 12.6054C106.905 11.7742 108.964 11.355 111.234 11.355C112.655 11.355 113.924 11.4915 115.041 11.7653C116.162 12.0414 117.177 12.3982 118.094 12.8459L115.68 18.427C115.049 18.167 114.395 17.9378 113.718 17.73C113.04 17.518 112.213 17.4159 111.235 17.4159C108.898 17.4159 107.051 18.2347 105.676 19.8668C104.307 21.5002 103.617 23.6988 103.617 26.4568C103.617 28.0913 103.964 29.413 104.66 30.4242C105.353 31.4353 106.632 31.9382 108.49 31.9382C109.407 31.9382 110.292 31.8408 111.139 31.6508C111.993 31.4585 112.747 31.2162 113.411 30.93L113.934 36.6513C113.048 37.0004 112.072 37.3157 111.001 37.5918C109.927 37.8584 108.65 37.9967 107.168 37.9967C105.212 37.9967 103.556 37.7058 102.202 37.1328C100.847 36.551 99.7276 35.7785 98.8457 34.8C97.9592 33.8192 97.3226 32.6738 96.929 31.3593C96.5354 30.0459 96.3345 28.6661 96.3345 27.2263Z" fill="white"/>
<path d="M127.433 37.9967C125.762 37.9967 124.311 37.7378 123.08 37.2254C121.852 36.713 120.836 35.994 120.031 35.0619C119.226 34.1344 118.623 33.0354 118.21 31.769C117.798 30.5031 117.599 29.1013 117.599 27.5653C117.599 25.6386 117.903 23.7125 118.518 21.7918C119.13 19.8668 120.038 18.1373 121.24 16.6001C122.433 15.0605 123.904 13.8018 125.636 12.8203C127.367 11.8454 129.357 11.355 131.593 11.355C133.233 11.355 134.677 11.6144 135.925 12.1268C137.167 12.638 138.19 13.363 138.999 14.2904C139.799 15.2226 140.407 16.3169 140.816 17.5851C141.228 18.8486 141.431 20.254 141.431 21.7912C141.431 23.7119 141.131 25.638 140.535 27.5647C139.939 29.4819 139.054 31.2156 137.886 32.7564C136.72 34.2936 135.262 35.5517 133.512 36.529C131.763 37.5063 129.735 37.9967 127.433 37.9967ZM130.932 17.4165C129.894 17.4165 128.977 17.7228 128.191 18.3279C127.403 18.94 126.741 19.7095 126.207 20.6375C125.667 21.5697 125.267 22.5862 124.997 23.6911C124.729 24.7985 124.597 25.8452 124.597 26.8397C124.597 28.4446 124.852 29.6945 125.352 30.594C125.86 31.4887 126.772 31.9388 128.097 31.9388C129.138 31.9388 130.051 31.6348 130.841 31.0232C131.625 30.4158 132.288 29.6458 132.825 28.716C133.362 27.7885 133.765 26.7691 134.035 25.6624C134.3 24.5586 134.435 23.5059 134.435 22.5131C134.435 20.9124 134.181 19.6596 133.676 18.7613C133.172 17.8665 132.256 17.4165 130.932 17.4165Z" fill="white"/>
<path d="M149.059 37.3256H142.053L147.965 12.034H155.017L149.059 37.3256ZM152.46 8.9525C151.484 8.9525 150.599 8.65682 149.814 8.06427C149.025 7.47528 148.629 6.56864 148.629 5.34672C148.629 4.6746 148.765 4.04404 149.032 3.44911C149.299 2.85537 149.655 2.34417 150.097 1.90955C150.537 1.4785 151.054 1.13412 151.635 0.874655C152.216 0.619347 152.839 0.491699 153.5 0.491699C154.479 0.491699 155.363 0.787383 156.15 1.37994C156.938 1.97546 157.336 2.8821 157.336 4.09749C157.336 4.77197 157.194 5.4049 156.93 5.99864C156.665 6.59238 156.31 7.10358 155.869 7.5382C155.425 7.96985 154.914 8.31304 154.333 8.57013C153.746 8.82959 153.125 8.9525 152.46 8.9525Z" fill="white"/>
<path d="M160.062 13.1843C160.593 13.0264 161.187 12.8364 161.832 12.6298C162.48 12.4231 163.203 12.2308 164.012 12.0574C164.811 11.8787 165.713 11.7338 166.706 11.6216C167.698 11.507 168.829 11.4512 170.085 11.4512C173.777 11.4512 176.322 12.5443 177.727 14.7239C179.131 16.9035 179.374 19.8865 178.463 23.6674L175.243 37.3234H168.196L171.317 23.9548C171.507 23.12 171.657 22.3131 171.767 21.5246C171.879 20.7432 171.872 20.0545 171.742 19.4584C171.618 18.8694 171.325 18.3873 170.87 18.0138C170.408 17.6463 169.71 17.4616 168.763 17.4616C167.85 17.4616 166.922 17.5614 165.974 17.7537L161.385 37.3228H154.336L160.062 13.1843Z" fill="white"/>
</svg>
