<svg width="206" height="49" viewBox="0 0 206 49" fill="none" xmlns="http://www.w3.org/2000/svg">
<path d="M47.9743 40.1637H39.1842L44.6822 7.38599H53.4719L47.9743 40.1637Z" fill="white"/>
<path d="M80.3664 7.93115C78.598 7.27268 75.7931 6.54565 72.3249 6.54565C63.471 6.54565 57.2362 10.9768 57.198 17.3121C57.1244 21.9862 61.6619 24.5824 65.0556 26.1409C68.5243 27.7334 69.7034 28.7729 69.7034 30.1925C69.6681 32.3726 66.9005 33.3776 64.3192 33.3776C60.7397 33.3776 58.8218 32.8595 55.9071 31.6465L54.7265 31.1265L53.4719 38.4318C55.5747 39.3309 59.4488 40.1288 63.471 40.1638C72.8784 40.1638 79.0029 35.8012 79.0755 29.0499C79.1113 25.3453 76.7153 22.5067 71.5498 20.1871C68.414 18.6981 66.4936 17.694 66.4936 16.1705C66.5304 14.7855 68.1179 13.3668 71.6577 13.3668C74.5723 13.2973 76.7139 13.9549 78.3362 14.6129L79.1471 14.9585L80.3664 7.93115Z" fill="white"/>
<path fill-rule="evenodd" clip-rule="evenodd" d="M96.4618 7.44897H103.393L110.623 39.8952H102.325C102.325 39.8952 101.513 36.1672 101.256 35.028H89.7508C89.418 35.8905 87.87 39.8952 87.87 39.8952H78.4673L91.778 10.1411C92.7003 8.03529 94.3242 7.44897 96.4618 7.44897ZM95.9097 19.3227C95.9097 19.3227 93.07 26.537 92.332 28.401H99.7805C99.4119 26.7787 97.715 19.0121 97.715 19.0121L97.0887 16.2163C96.825 16.9362 96.4436 17.926 96.1864 18.5936C96.012 19.0461 95.8946 19.3507 95.9097 19.3227Z" fill="white"/>
<path fill-rule="evenodd" clip-rule="evenodd" d="M0.1475 7.44897H14.5652C16.5195 7.51733 18.1052 8.10411 18.6212 10.1764L21.7543 25.0829C21.7547 25.0843 21.7551 25.0858 21.7556 25.0872L22.7146 29.5745L31.4906 7.44897H40.9663L26.8808 39.8612H17.4046L9.4175 11.668C6.66168 10.1596 3.5165 8.94645 0 8.10457L0.1475 7.44897Z" fill="white"/>
<path d="M178.289 5.16956H157.993V43.2109H178.289V5.16956Z" fill="#FF5F00"/>
<path d="M159.293 24.1935C159.293 31.9103 162.758 38.7843 168.153 43.2142C164.207 46.4535 159.228 48.3869 153.817 48.3869C141.007 48.3869 130.623 37.5553 130.623 24.1935C130.623 10.8316 141.007 0 153.817 0C159.228 0 164.207 1.93345 168.153 5.17278C162.758 9.60263 159.293 16.4766 159.293 24.1935Z" fill="#EB001B"/>
<path d="M205.662 24.1935C205.662 10.8316 195.278 0 182.467 0C177.056 0 172.077 1.93345 168.131 5.17278C173.527 9.60263 176.991 16.4766 176.991 24.1935C176.991 31.9103 173.527 38.7843 168.131 43.2142C172.077 46.4535 177.056 48.3869 182.467 48.3869C195.278 48.3869 205.662 37.5553 205.662 24.1935Z" fill="#F79E1B"/>
</svg>
