<svg width="184" height="56" viewBox="0 0 184 56" fill="none" xmlns="http://www.w3.org/2000/svg">
<path d="M163.435 16.4418C166.86 12.1053 171.424 11.402 176.418 12.3171C180.644 13.091 183.15 15.8499 183.746 20.0723C183.904 21.1857 183.98 22.3044 183.977 23.4313C183.961 29.4161 183.942 35.4009 183.997 41.3856C184.007 42.4256 183.708 42.6972 182.708 42.6293C181.401 42.5424 180.078 42.5424 178.771 42.6293C177.733 42.6972 177.401 42.4229 177.418 41.3286C177.483 36.5142 177.448 31.6998 177.448 26.8853C177.448 25.8942 177.45 24.9058 177.448 23.9147C177.431 19.8958 175.909 17.7588 172.723 17.2863C168.63 16.6781 165.518 18.5599 164.42 22.28C163.84 24.2487 163.789 26.2716 163.772 28.2892C163.731 32.699 163.734 37.1089 163.78 41.5187C163.791 42.4202 163.516 42.6673 162.64 42.6293C161.147 42.5614 159.652 42.5804 158.157 42.6239C157.496 42.6429 157.319 42.4175 157.321 41.7794C157.338 32.3297 157.338 22.8801 157.321 13.4304C157.321 12.7625 157.468 12.3877 158.215 12.4936C158.348 12.5126 158.487 12.4936 158.62 12.4936C159.838 12.5262 161.297 12.1651 162.204 12.7081C163.072 13.2295 162.849 14.8316 163.179 15.9368C163.225 16.0943 163.328 16.2327 163.435 16.4391V16.4418Z" fill="white"/>
<path d="M89.6179 12.4936C89.6751 13.1399 89.2775 13.4332 89.0352 13.7862C86.1978 17.9027 83.3712 22.0274 80.4848 26.1087C79.9075 26.9233 79.8449 27.4773 80.4575 28.3326C83.5482 32.6556 86.5599 37.0355 89.5989 41.3992C89.8249 41.7224 90.0345 42.0564 90.394 42.5994C87.916 42.5994 85.6395 42.6049 83.3603 42.5967C82.7858 42.5967 82.6823 42.0509 82.4481 41.7033C80.1961 38.3362 77.9659 34.9528 75.6377 31.4391C73.4892 34.6786 71.3435 37.785 69.3447 40.9838C68.5986 42.1758 67.8389 42.7814 66.3494 42.6456C64.612 42.4854 62.8475 42.6076 60.8569 42.6076C62.9374 39.5962 64.8952 36.7613 66.8586 33.9264C68.2174 31.9632 69.5462 29.9782 70.9568 28.053C71.4143 27.4284 71.3734 27.0401 70.9432 26.4237C67.9968 22.2175 65.0995 17.9788 62.1858 13.7481C61.9598 13.4196 61.7474 13.0856 61.3607 12.4991C63.8469 12.4991 66.1152 12.4936 68.3862 12.5018C68.9472 12.5018 69.0806 13.0123 69.3202 13.3761C71.4006 16.5287 73.4756 19.684 75.6323 22.9615C77.7617 19.7383 79.834 16.6482 81.8463 13.5228C82.3392 12.757 82.8811 12.4339 83.8151 12.4692C85.7457 12.5452 87.6818 12.4909 89.6152 12.4909L89.6179 12.4936Z" fill="white"/>
<path d="M11.6677 30.1167C11.6677 33.94 11.6405 37.7633 11.6895 41.5866C11.7004 42.4284 11.4717 42.6673 10.6357 42.6266C9.18975 42.556 7.73564 42.5397 6.29241 42.6293C5.30394 42.6918 5.11877 42.3442 5.12422 41.4291C5.16234 33.8721 5.12422 26.3151 5.16779 18.7581C5.17323 17.7452 4.97717 17.27 3.86072 17.4221C3.19357 17.5117 2.4883 17.528 1.83204 17.4112C1.2602 17.3108 0.394262 17.957 0.141018 16.8872C-0.229319 15.3367 0.121956 14.2478 1.28743 13.9545C4.04316 13.2594 5.23042 11.9967 5.32845 8.77351C5.53813 1.67541 10.1238 0 15.7469 0C17.5931 0 19.4312 0.32585 21.223 0.844494C21.8847 1.03729 22.1842 1.28168 21.8002 1.95238C21.7567 2.02841 21.754 2.12617 21.724 2.21035C21.3183 3.35082 21.1957 4.75469 20.4333 5.56117C19.5347 6.51156 18.2221 5.37109 17.0648 5.30592C13.2635 5.0914 11.6922 6.47355 11.6677 10.2561C11.6677 10.6607 11.714 11.0735 11.6568 11.4699C11.5316 12.3388 11.9237 12.5289 12.727 12.5045C14.5351 12.4502 16.3487 12.5099 18.1568 12.4773C18.7913 12.4665 19.0472 12.643 19.0173 13.3082C18.9683 14.3863 18.9628 15.4697 19.0173 16.545C19.0554 17.2728 18.7831 17.4628 18.0833 17.4465C16.365 17.4031 14.6413 17.49 12.9258 17.4112C11.9455 17.3651 11.616 17.585 11.6351 18.6413C11.7086 22.4646 11.665 26.2879 11.665 30.1112L11.6677 30.1167Z" fill="white"/>
<path d="M31.1946 21.4192C31.1946 28.0367 31.1756 34.6541 31.2164 41.2716C31.2219 42.2682 31.0585 42.7271 29.9121 42.6375C28.4716 42.5261 27.0147 42.5723 25.5661 42.6266C24.8445 42.6537 24.6566 42.4148 24.6566 41.7142C24.6756 28.2104 24.6756 14.704 24.6566 1.20021C24.6566 0.412743 24.9153 0.200941 25.6695 0.228095C27.1182 0.279688 28.5723 0.304126 30.0155 0.222664C30.9904 0.168356 31.2191 0.505067 31.2137 1.43645C31.1756 8.09737 31.1919 14.761 31.1919 21.4246L31.1946 21.4192Z" fill="white"/>
<path d="M148.131 27.4827C148.131 22.9344 148.177 18.3888 148.098 13.8432C148.079 12.6756 148.433 12.3959 149.533 12.4692C150.93 12.5642 152.341 12.5262 153.743 12.48C154.446 12.4583 154.669 12.6756 154.666 13.387C154.645 22.8421 154.642 32.2944 154.669 41.7495C154.669 42.5071 154.391 42.6374 153.724 42.6184C152.276 42.5777 150.821 42.5397 149.378 42.6293C148.382 42.689 148.088 42.4311 148.101 41.3938C148.166 36.7586 148.128 32.1206 148.128 27.4827H148.131Z" fill="white"/>
<path d="M151.331 8.07293C149.005 8.05935 147.682 6.73694 147.731 4.47772C147.78 2.21035 149.109 0.955826 151.453 0.963972C153.749 0.972118 155.067 2.3081 155.034 4.59991C155.001 6.89444 153.73 8.08922 151.331 8.07564V8.07293Z" fill="white"/>
<path d="M145.147 26.0734C145.01 22.8421 144.351 19.7737 142.677 16.936C138.878 10.5087 128.53 10.4299 124.617 15.8526C124.454 16.078 124.367 16.4554 123.899 16.3441C123.436 15.1466 123.749 13.4549 122.82 12.7244C121.875 11.9804 120.282 12.6212 118.989 12.4746C117.891 12.3497 117.657 12.776 117.665 13.8079C117.706 18.7119 117.663 23.616 117.649 28.52C116.933 31.0725 117.241 33.6549 117.439 36.2345C117.45 36.373 117.578 36.4599 117.663 36.5658C117.671 42.6402 117.701 48.7146 117.668 54.7889C117.663 55.7122 117.878 56.0516 118.853 55.9919C120.252 55.9077 121.66 55.9348 123.063 55.9837C123.877 56.0136 124.253 55.8751 124.239 54.9111C124.179 51.0417 124.212 47.1722 124.214 43.3027C124.214 41.9342 123.82 40.5846 124.171 39.0422C124.402 39.1318 124.416 39.4034 124.56 39.5527C130.491 45.7792 140.487 43.93 143.739 36.001C145.046 32.8158 145.291 29.4704 145.149 26.0707L145.147 26.0734ZM136.912 34.8252C135.717 37.2854 133.435 38.0701 130.766 37.861C128.1 37.6519 126.131 36.4897 125.159 33.9128C124.351 31.7704 124.198 29.5383 124.206 26.9261C124.165 25.343 124.288 23.4259 124.887 21.5577C125.788 18.7581 127.836 17.4927 130.66 17.2592C133.478 17.0257 135.913 17.8729 137.1 20.5095C139.238 25.2534 139.194 30.1275 136.912 34.8252Z" fill="white"/>
<path d="M117.644 28.5254C116.843 29.1798 116.059 29.856 115.239 30.4832C111.555 33.3046 107.702 35.7837 102.909 36.2725C101.575 36.4083 100.418 36.0607 99.5026 35.0207C98.3644 33.7255 98.3726 33.7064 100.039 33.1118C105.21 31.2626 109.238 28.1236 111.293 22.9154C113.129 18.272 110.354 13.4739 105.436 12.5968C100.763 11.7632 96.4473 13.8812 93.7542 18.4187C91.2817 22.5841 90.0944 27.0863 90.3559 31.9414C90.6527 37.4809 93.8359 41.7196 98.702 42.9769C102.179 43.8757 105.518 43.205 108.78 41.9477C112.064 40.6851 114.842 38.5942 117.657 36.5685C117.652 33.8884 117.649 31.2055 117.644 28.5254ZM97.7735 27.2655C98.0894 24.8515 98.86 22.5787 100.145 20.4987C100.597 19.7682 101.292 19.2061 102.106 18.8993C103.07 18.5381 104.181 18.0847 105.044 18.8803C106.03 19.7899 106.354 21.1178 105.804 22.3479C104.429 25.419 102.051 27.4148 98.7565 28.3001C97.7517 28.5689 97.7354 27.9769 97.7735 27.2655Z" fill="#BC202E"/>
<path d="M60.3913 27.4881C60.2905 26.554 60.3477 25.6009 60.3368 24.656C60.2388 17.4737 55.6096 12.2574 48.0613 11.9451C41.8118 11.6871 36.5155 14.9647 34.5603 20.8571C33.2832 24.7048 33.1661 28.6585 34.0511 32.5795C35.0668 37.0681 37.6565 40.4651 42.0951 42.0455C47.4731 43.9571 52.8566 43.4765 58.1421 41.4752C58.7221 41.2553 58.9617 40.9077 58.9372 40.2615C58.8854 38.8684 58.9208 37.4727 58.9208 35.8571C56.4292 36.8645 54.0357 37.6139 51.5087 37.9289C44.9161 38.7544 41.2182 36.2644 40.2842 30.3692C40.1072 29.245 40.355 28.9165 41.5477 28.93C47.3451 28.9925 53.1425 28.9165 58.9372 28.9925C60.1843 29.0088 60.5111 28.6368 60.3886 27.4881H60.3913ZM53.1888 24.2758C51.1492 24.2894 49.1124 24.2812 47.0728 24.284C45.1258 24.284 43.1761 24.2704 41.2291 24.2921C40.6382 24.2975 40.3632 24.2432 40.4285 23.4938C40.8397 18.7934 44.9842 15.9015 49.4963 17.1886C52.7858 18.1281 53.7743 21.001 53.9812 23.7191C54.0357 24.4306 53.551 24.2731 53.1888 24.2758Z" fill="white"/>
</svg>
