<svg width="181" height="43" viewBox="0 0 181 43" fill="none" xmlns="http://www.w3.org/2000/svg">
<g clip-path="url(#clip0_208_698)">
<path d="M140.608 43C138.187 41.1482 137.616 38.0653 139.781 35.179C141.852 32.4117 141.816 30.115 140.146 27.177C137.976 23.3647 136.238 19.2991 134.491 15.2644C133.503 12.9885 134.305 10.7798 135.992 10.1539C138.475 9.22797 140.865 10.2263 141.914 12.6936C143.24 15.8127 144.505 18.9525 146.011 22.6044C147.235 19.7749 148.253 17.4007 149.286 15.0316C149.816 13.8161 150.273 12.554 150.936 11.416C151.877 9.8073 154.519 9.18141 156.242 10.309C157.619 11.2091 158.252 12.4609 157.676 14.3902C156.545 18.1663 154.417 21.4612 152.895 25.0458C150.823 29.9288 148.422 34.6773 146.243 39.5137C145.564 41.0241 144.418 42.0327 143.168 42.9948H140.613L140.608 43Z" fill="#83C451"/>
<path d="M181 30.8598C179.777 32.8254 177.931 33.4358 175.69 33.4048C171.258 33.3479 166.827 33.3479 162.4 33.4048C160.688 33.4306 158.956 33.2444 158.226 31.6512C157.414 29.8874 158.843 28.4908 159.897 27.239C162.75 23.8561 165.701 20.556 169.078 16.6869C166.385 16.6869 164.323 16.7179 162.267 16.6817C159.701 16.6351 158.498 15.5437 158.509 13.366C158.519 11.2142 159.732 10.1435 162.344 10.1228C166.945 10.0918 171.546 10.1176 176.147 10.1125C177.551 10.1125 179.206 9.92624 179.91 11.328C180.743 12.9884 179.756 14.4678 178.625 15.7661C175.556 19.2887 172.502 22.8268 169.053 26.8097C171.962 26.8097 174.373 26.9028 176.774 26.7786C178.64 26.6855 179.992 27.3425 181.005 28.8322V30.8547L181 30.8598Z" fill="#83C451"/>
<path d="M59.8193 11.6953C53.023 5.57091 44.8901 3.22254 35.8525 2.98978C27.2312 2.76735 19.1189 4.22603 11.9011 9.09864C7.90153 11.7987 4.78616 15.3472 4.19496 20.2818C3.77855 23.7579 5.31053 26.8666 7.36174 29.7167C3.54721 28.0046 1.60909 24.8338 0.52437 21.006C0.395848 20.556 0.647751 19.9715 0 19.7336V17.2041C0.334157 11.2246 4.16925 7.74341 8.96569 4.98641C14.5127 1.80525 20.4607 0.0724167 26.9279 0.243113C27.8276 0.268976 28.7889 0.53278 29.6526 0H33.7447C36.7573 0.941417 39.9446 0.667268 43.0189 1.45351C49.7123 3.17082 55.8813 5.65368 60.395 11.1263C60.4619 11.5763 60.2614 11.7574 59.8141 11.6953H59.8193Z" fill="#83C451"/>
<path d="M46.6894 9.61072C48.4476 9.61072 50.1852 9.59003 51.9177 10.0918C54.4213 10.8159 55.7579 12.735 55.2027 15.1299C54.7863 16.9145 52.6888 17.7162 50.2366 17.0283C49.7637 16.8938 49.2959 16.7438 48.8229 16.5989C45.8566 15.6679 43.9648 16.3144 42.7052 18.6887C41.3121 21.306 41.7593 24.2906 43.8157 25.8786C45.5893 27.2442 47.5942 26.939 49.594 26.5717C50.6068 26.3855 51.5578 25.7441 52.6271 26.0493C53.7324 26.3648 55.0434 26.5769 55.1873 28.0356C55.3261 29.4425 55.4084 30.8443 53.9792 31.8633C50.9769 34.0048 47.5068 34.3721 44.1396 33.8082C34.0943 32.1323 31.6369 22.594 35.1636 15.5644C37.1171 11.6642 41.3069 9.61072 46.6894 9.61589V9.61072Z" fill="white"/>
<path d="M101.579 3.4398C96.5714 1.83112 91.4922 2.62253 86.4541 2.67943C84.6703 2.70012 83.2205 4.18983 83.3028 6.52786C83.4364 10.3142 83.3388 14.1109 83.3388 17.9025C83.3388 21.8647 83.3645 25.8269 83.3285 29.784C83.3079 32.1116 84.6291 33.5341 86.7215 33.71C88.5979 33.8703 90.4075 33.3169 91.1066 30.9323C91.6516 29.0805 91.4819 27.2804 91.4871 25.4648C91.4871 24.1355 91.9086 23.6906 93.2452 23.7475C95.353 23.8354 97.435 23.5768 99.5377 23.3337C104.54 22.7492 107.83 19.2422 108.334 14.054C108.771 9.57453 106.601 5.04849 101.584 3.43463L101.579 3.4398ZM94.3557 16.6921C91.0089 16.5886 91.6978 17.3231 91.4665 12.6212C91.3534 10.309 91.8264 9.35728 94.4225 9.54867C97.9029 9.80213 99.1829 10.4797 99.1881 12.8954C99.1932 15.8075 98.0622 16.6972 94.3557 16.6972V16.6921Z" fill="#83C451"/>
<path d="M133.468 29.1839C133.396 26.7476 133.447 24.3061 133.447 21.8647C133.447 19.2577 133.401 16.6507 133.462 14.0437C133.498 12.4039 133.051 10.9659 131.56 10.2366C130.003 9.47106 128.265 9.56417 126.954 10.7901C126.126 11.5608 125.509 11.3694 124.815 10.8884C122.322 9.15036 119.613 9.29002 116.883 10.0349C109.773 11.9746 107.45 17.9024 108.488 24.6941C109.634 32.2202 118.343 36.2083 124.882 32.4271C125.751 31.9254 126.152 31.9409 126.779 32.5927C128.183 34.0565 129.941 34.0617 131.586 33.2548C133.195 32.4685 133.519 30.8909 133.473 29.1839H133.468ZM121.15 26.8097C118.451 26.8045 116.544 24.6372 116.58 21.6164C116.616 18.4093 118.153 16.6817 120.955 16.6972C123.88 16.7076 125.283 18.3059 125.268 21.6009C125.258 24.7199 123.597 26.82 121.15 26.8097Z" fill="#83C451"/>
<path d="M29.447 23.7837C31.0921 23.7941 32.7372 23.3389 33.0919 21.7716C33.4363 20.2353 33.5546 18.5128 32.7989 16.8731C30.0793 10.9867 25.2058 9.05212 19.0984 9.64179C14.1118 10.1228 10.7651 12.3005 8.78068 17.618C7.17672 21.9164 8.25117 27.4822 12.6363 31.134C17.4122 35.1118 26.0026 34.2583 30.2952 31.8168C31.1538 31.3306 31.8375 30.6013 32.2899 29.6236C33.5546 26.8925 32.4441 24.9734 29.4984 25.3562C27.4832 25.62 25.5451 26.4321 23.5761 27.027C20.2962 28.0201 17.6487 26.7994 16.6616 23.7786C20.9286 23.7786 25.1852 23.7579 29.4367 23.7889L29.447 23.7837ZM16.6154 18.6939C16.9341 16.7697 18.1988 15.8851 19.9055 15.7145C22.2395 15.4765 24.4809 15.6731 25.3908 18.6939H16.6205H16.6154Z" fill="white"/>
<path d="M72.7949 10.1591C68.6102 8.92797 64.4101 9.3004 60.3951 11.1263C60.1997 11.3177 60.0095 11.5039 59.8193 11.6953C59.3772 12.1919 58.9762 12.7298 58.4929 13.1747C54.7709 16.5835 54.4933 20.9647 55.6089 25.32C57.11 31.2065 61.6906 33.8704 69.0112 33.8962C75.3087 33.9169 79.915 29.4116 80.7426 24.4458C81.8736 17.649 78.64 11.866 72.8051 10.1539L72.7949 10.1591ZM67.9933 27.2856C65.7621 27.2701 63.3819 24.3682 63.3973 21.6733C63.4128 18.7301 65.5051 16.2214 67.9676 16.1903C70.5637 16.1593 72.6252 18.6835 72.6046 21.8595C72.5841 24.7821 70.4455 27.3011 67.9984 27.2856H67.9933Z" fill="white"/>
</g>
<defs>
<clipPath id="clip0_208_698">
<rect width="181" height="43" fill="white"/>
</clipPath>
</defs>
</svg>
