<svg width="158" height="76" viewBox="0 0 158 76" fill="none" xmlns="http://www.w3.org/2000/svg">
<g clip-path="url(#clip0_208_760)">
<path d="M38.9092 38.9678C38.7056 45.5211 39.1365 52.0839 37.9385 58.6181C36.3995 67.0166 30.9966 74.54 20.5886 75.0774C18.8271 75.1678 18.1452 74.6114 18.1973 72.8327C18.2826 69.9033 18.2447 66.969 18.2115 64.0396C18.1973 62.8887 18.3725 62.085 19.7505 61.852C23.3066 61.248 24.9261 59.7072 25.3002 56.1785C26.5313 44.6413 26.5029 33.0898 25.3096 21.5526C24.9592 18.1666 23.2356 16.602 19.6179 15.9885C18.3441 15.7745 17.9369 15.2466 18.453 14.072C19.7552 11.1235 19.8783 8.0751 19.0118 5.03148C18.4436 3.04362 19.2249 2.73451 20.9532 2.76304C27.7767 2.87242 34.3634 7.82305 36.6552 14.5142C38.6914 20.4588 38.9234 26.6031 38.9092 32.7902C38.9092 34.8494 38.9092 36.9086 38.9092 38.9678Z" fill="#FEFEFE"/>
<path d="M13.0835 48.869C13.0835 56.7824 13.0361 64.6958 13.1213 72.6092C13.1403 74.4782 12.5389 75.1725 10.6827 75.0964C8.00731 74.9918 5.32718 75.0299 2.64705 75.0822C1.37801 75.1059 0.729284 74.6446 0.710343 73.3226C0.696137 72.2954 0.54461 71.2729 0.54461 70.2457C0.53514 56.635 0.530404 43.0243 0.54461 29.4137C0.54461 28.3104 0.748224 27.2023 0.710343 26.099C0.563551 21.8284 1.10337 22.3753 4.73528 22.3563C6.70513 22.3468 8.67498 22.4039 10.6448 22.3373C12.4632 22.2802 13.1403 23.0364 13.1261 24.8863C13.0598 32.8758 13.0977 40.87 13.0977 48.8643H13.0835V48.869Z" fill="#FD3C02"/>
<path d="M117.831 48.8738C117.831 40.9509 117.888 33.028 117.798 25.1098C117.774 23.0649 118.357 22.2374 120.483 22.3801C122.917 22.5418 125.374 22.4609 127.818 22.3991C129.399 22.3611 130.072 22.9412 130.072 24.62C130.034 40.6988 130.039 56.7824 130.072 72.8613C130.072 74.5115 129.39 75.1487 127.808 75.125C125.284 75.0822 122.751 74.9966 120.237 75.144C118.281 75.2581 117.793 74.4164 117.808 72.633C117.864 64.7101 117.831 56.7919 117.831 48.869V48.8738Z" fill="#FDFDFD"/>
<path d="M131.364 8.83124C131.36 13.1541 127.818 17.1346 123.935 17.1774C119.915 17.225 116.339 13.2017 116.41 8.70284C116.472 4.4608 120.265 0.0142706 123.835 3.61418e-06C127.567 -0.0142633 131.364 4.44653 131.36 8.83124H131.364Z" fill="#FCFCFC"/>
<path d="M112.476 39.6241C112.424 35.4534 112.054 31.2636 110.728 27.2356C108.233 19.6551 99.5674 17.5388 94.3539 21.8475C93.8804 22.2422 93.3737 22.8319 92.7155 22.518C92.0005 22.1804 92.3273 21.3957 92.3273 20.8012C92.332 15.5795 92.3273 10.3531 92.4078 5.13136C92.4362 3.40981 91.8253 2.68695 90.0591 2.76304C87.701 2.86767 85.3239 2.8962 82.9657 2.75353C80.8491 2.62513 80.2619 3.48115 80.2761 5.52608C80.3519 16.6067 80.314 27.6922 80.314 38.7728H80.3282C80.3282 40.2756 80.3282 41.7831 80.3282 43.2859C80.3235 53.0207 80.3519 62.7603 80.2809 72.4951C80.2667 74.4164 80.8586 75.2581 82.8616 75.1535C85.2197 75.0299 87.5873 75.1107 89.9549 75.125C90.9919 75.1345 91.8679 74.9823 91.9484 73.6793C92.0858 71.4679 92.9523 72.2859 93.923 73.1704C97.3134 76.2521 101.201 76.8275 105.25 74.716C109.426 72.5379 111.027 68.6573 111.713 64.2821C113.001 56.1024 112.58 47.8561 112.476 39.6336V39.6241ZM100.117 56.5209C100.107 58.0237 100.031 59.536 99.4916 60.9627C98.9566 62.3703 98.09 63.4546 96.4327 63.5164C94.7185 63.583 93.6436 62.689 92.9949 61.1481C92.5261 60.0306 92.3415 58.8892 92.3509 57.6813C92.3746 54.3618 92.3604 51.0424 92.3509 47.7182C92.3509 44.4748 92.3509 41.2362 92.3462 37.9929C92.3462 36.9609 92.4125 35.9527 92.7155 34.9493C93.2412 33.1849 94.264 31.9342 96.1912 31.9627C98.2226 31.9913 99.2549 33.3656 99.7142 35.2108C100.159 36.9894 100.15 38.8156 100.155 40.6323C100.164 45.9301 100.155 51.2231 100.117 56.5209Z" fill="#FEFEFE"/>
<path d="M73.0786 58.1378C70.3985 58.152 67.7136 58.2044 65.0335 58.152C63.5561 58.1235 62.7227 58.4754 62.5143 60.1827C62.287 62.0517 61.1648 63.4593 59.1002 63.4879C56.9931 63.5212 56.0034 62.0136 55.6199 60.2112C55.2458 58.4374 55.2505 56.5922 54.9711 54.7946C54.6539 52.7354 55.3357 51.9412 57.4997 51.9982C62.6232 52.1314 67.7562 52.0077 72.8797 52.0981C74.6223 52.1314 75.2568 51.5464 75.2094 49.7631C75.0769 44.6983 75.2142 39.6383 74.4518 34.5926C73.2207 26.4461 69.0821 19.0036 57.8549 19.7169C50.7757 20.1639 45.1692 25.1193 43.8955 32.1862C42.9579 37.3841 43.0147 42.5821 42.8442 47.9036C43.0479 52.8495 42.9579 57.881 43.8955 62.9267C46.2583 75.6528 58.6788 78.6631 67.3064 73.7839C72.7282 70.7165 74.1156 65.1761 74.8401 59.4694C74.9964 58.2424 74.0114 58.133 73.0786 58.1378ZM55.1416 37.7551C55.2363 36.8943 55.3357 36.024 55.5299 35.1823C55.9845 33.1992 57.1872 31.7677 59.2707 31.9437C61.2642 32.1101 62.4291 33.5986 62.7037 35.6008C62.8316 36.5281 62.7274 37.4888 62.7274 38.4351C62.8884 40.9461 61.6636 42.2016 59.0529 42.2016C56.1234 42.2016 54.8212 40.7194 55.1463 37.7551H55.1416Z" fill="#FEFEFE"/>
<path d="M136.796 35.4153C136.796 27.0977 136.848 18.7801 136.758 10.4624C136.739 8.55067 137.35 7.94194 139.206 8.06559C141.327 8.20826 143.472 8.23204 145.589 8.06084C147.672 7.89439 148.155 8.77894 148.08 10.6764C147.952 13.9198 148.08 17.1727 147.999 20.4208C147.957 22.1566 148.657 22.8937 150.367 22.8461C152.261 22.7891 154.155 22.8699 156.044 22.8033C157.47 22.751 158.047 23.3407 157.995 24.7722C157.929 26.5936 157.91 28.4198 157.995 30.2364C158.08 32.0055 157.332 32.6903 155.609 32.5714C153.88 32.4478 152.142 32.3907 150.414 32.3955C148.804 32.4002 147.99 33.2135 147.999 34.9207C148.047 42.0494 147.999 49.1829 148.065 56.3116C148.094 59.6025 149.353 62.1801 152.782 63.117C153.828 63.4023 154.179 63.9207 154.065 64.9859C153.79 67.5873 153.805 70.2029 154.065 72.809C154.188 74.0692 153.653 74.521 152.446 74.5163C143.449 74.4592 137.454 69.2803 136.9 59.9069C136.658 55.8028 136.824 51.6701 136.815 47.5517C136.805 43.5094 136.815 39.4719 136.815 35.4296H136.8L136.796 35.4153Z" fill="#FEFEFE"/>
<path d="M13.2018 8.9216C13.6233 12.5074 10.4649 16.4926 6.66249 16.1502C3.38099 15.8553 -0.0141612 12.4883 4.44246e-05 8.80747C0.0142501 5.09806 3.53252 0.979673 6.94187 1.26026C10.6685 1.56937 13.2018 4.39423 13.2018 8.9216Z" fill="#FE3C01"/>
</g>
<defs>
<clipPath id="clip0_208_760">
<rect width="158" height="76" fill="white"/>
</clipPath>
</defs>
</svg>
