<svg width="140" height="49" viewBox="0 0 140 49" fill="none" xmlns="http://www.w3.org/2000/svg">
<path d="M111.335 5.1448L122.968 3.05504V48.1092H111.335V5.1448ZM128.317 5.1448V48.0843H139.951V3.05504L128.317 5.1448ZM94.7958 48.0843H106.43V15.1458H94.7958V48.0843ZM17.919 19.798C16.4401 19.6985 13.0387 19.4746 13.0387 16.3897C13.0387 12.658 17.9437 12.658 19.7676 12.658C22.9965 12.658 27.1866 13.6282 30.169 14.5238C30.169 14.5238 31.8451 15.1209 33.25 15.718L33.3732 15.7428V5.54285L33.2007 5.49309C29.6761 4.24919 25.5845 3.05504 17.9683 3.05504C4.85563 3.05504 0.221832 10.7672 0.221832 17.3599C0.221832 21.1663 1.84859 30.1224 16.8592 31.1672C18.1408 31.2419 21.5176 31.4409 21.5176 34.6502C21.5176 37.2872 18.757 38.8546 14.0986 38.8546C8.99648 38.8546 4.0669 37.536 1.05986 36.2921V46.8155C5.54578 48.0097 10.6232 48.6068 16.5634 48.6068C29.3803 48.6068 35.1232 41.3175 35.1232 34.078C35.1232 25.8682 28.7148 20.5443 17.919 19.798ZM88.2394 14.6731C77.493 15.0214 72.0458 19.8975 72.0458 29.575V48.1092H83.7782V32.9833C83.7782 27.1868 84.5176 24.6989 91.3451 24.475V14.8224C90.162 14.5985 88.2394 14.6731 88.2394 14.6731ZM56.6901 15.1209C56.4437 15.7677 54.5704 21.0916 50.0599 26.5897V3.05504L38.0563 5.44334V48.0843H50.0599V34.8989C53.5352 40.1731 55.2606 48.0843 55.2606 48.0843H69.6303C68.2007 42.1136 61.9894 31.1175 61.9894 31.1175C67.5599 23.9775 70.0247 16.3648 70.419 15.096H56.6901V15.1209ZM100.588 11.9863C103.743 11.9863 106.331 9.39894 106.331 6.21455C106.331 3.03016 103.768 0.417969 100.588 0.417969C97.4331 0.417969 94.8697 3.00529 94.8697 6.21455C94.8697 9.39894 97.4331 11.9863 100.588 11.9863Z" fill="white"/>
</svg>
