<svg width="199" height="36" viewBox="0 0 199 36" fill="none" xmlns="http://www.w3.org/2000/svg">
<g clip-path="url(#clip0_208_1769)">
<path d="M184.253 35.9999C184.253 34.8512 184.261 33.7025 184.247 32.5546C184.244 32.3017 184.314 32.2366 184.558 32.2397C184.994 32.245 185.432 32.2818 185.869 32.1883C186.757 31.9975 187.344 31.4665 187.623 30.5952C187.961 29.5438 188.278 28.4848 188.612 27.4311C188.669 27.2503 188.654 27.0917 188.593 26.9177C186.426 20.818 184.262 14.7174 182.098 8.61616C182.035 8.43991 181.983 8.25983 181.916 8.05523C183.218 8.05523 184.483 8.06136 185.747 8.0491C185.984 8.0468 186.001 8.20313 186.05 8.35485C187.034 11.4132 188.015 14.4722 188.999 17.5305C189.446 18.9206 189.894 20.3099 190.343 21.7C190.374 21.795 190.412 21.8869 190.469 22.0394C190.866 20.8126 191.246 19.6425 191.621 18.4715C192.702 15.0975 193.783 11.7235 194.853 8.34642C194.93 8.10121 195.045 8.0491 195.277 8.04987C196.518 8.05753 197.759 8.0468 198.999 8.04297V8.19623C198.686 9.62998 198.123 10.9833 197.663 12.3687C197.126 13.9872 196.564 15.5972 196.019 17.2133C194.648 21.2777 193.259 25.3353 191.89 29.4005C191.517 30.5093 191.176 31.632 190.735 32.7171C190.118 34.2328 189.129 35.3455 187.536 35.8221C187.149 35.9378 186.749 35.9271 186.359 36.0007H184.253L184.253 35.9999Z" fill="white"/>
<path d="M51.537 0C52.0283 0.178548 52.5204 0.3479 52.9328 0.699632C53.9891 1.6008 54.3187 3.14183 53.71 4.40622C53.0772 5.72196 51.6709 6.38941 50.2564 6.04687C48.9299 5.72503 47.9916 4.50278 47.9886 3.09202C47.9848 1.60463 48.9013 0.415334 50.3136 0.0712659C50.3723 0.0567062 50.4272 0.0245216 50.4836 0.0007663C50.835 0.0007663 51.1856 0.0007663 51.537 0.0007663V0Z" fill="white"/>
<path d="M164.316 0C165.124 0.267439 165.767 0.724153 166.055 1.58318C166.486 2.86826 165.815 4.25603 164.571 4.65451C163.319 5.05528 161.98 4.34799 161.607 3.08972C161.22 1.78548 161.921 0.465144 163.205 0.0773963C163.276 0.0559399 163.344 0.0260542 163.413 0C163.714 0 164.015 0 164.316 0V0Z" fill="white"/>
<path d="M0 16.4677C0.075242 16.2984 0.143712 16.126 0.226478 15.9604C0.711037 14.9888 1.78324 14.5167 2.82458 14.8141C3.79144 15.0899 4.4611 16.0562 4.40617 17.0969C4.34974 18.1682 3.57324 19.0356 2.51985 19.2065C1.51613 19.3689 0.509388 18.759 0.130169 17.7681C0.0910428 17.6662 0.104586 17.5367 0.00075242 17.4624C0.00075242 17.1306 0.00075242 16.7988 0.00075242 16.467L0 16.4677Z" fill="white"/>
<path d="M127.977 3.3878e-05C127.977 0.0268544 127.975 0.0529086 127.975 0.0797291C127.768 0.249848 127.521 0.198506 127.288 0.199272C122.787 0.202337 118.286 0.201571 113.786 0.201571C113.298 0.201571 113.053 0.453939 113.053 0.958675C113.053 9.66308 113.053 18.3675 113.053 27.0711C113.053 27.5784 113.298 27.8323 113.789 27.8328C114.591 27.8328 115.394 27.8336 116.196 27.8328C116.79 27.832 116.794 27.8282 116.794 27.2067C116.795 23.7607 116.794 20.3146 116.794 16.8686C116.794 16.7031 116.783 16.5353 116.808 16.3713C116.826 16.2533 116.818 16.1046 116.993 16.0885C116.993 19.9039 116.992 23.7201 116.992 27.5355C116.992 27.8742 116.831 28.0435 116.511 28.0435C115.446 28.0435 114.38 28.0259 113.315 28.0527C112.933 28.0627 112.834 27.9539 112.835 27.5638C112.846 19.4732 112.843 11.3819 112.844 3.29129C112.844 2.19395 112.85 1.09661 112.854 -0.000732422H127.976L127.977 3.3878e-05Z" fill="white"/>
<path d="M95.1886 0.0812278C95.1834 0.0544073 95.1789 0.0268205 95.1736 0C96.4527 0 97.7318 0 99.0109 0C99.0094 0.0260542 99.0087 0.0521084 99.0072 0.0781626C98.8747 0.202303 98.7077 0.197705 98.5459 0.198472C97.5806 0.202303 96.6152 0.202303 95.6499 0.198472C95.4888 0.197705 95.3203 0.211499 95.1886 0.0819941V0.0812278Z" fill="white"/>
<path d="M80.1267 0C80.1327 0.0245216 80.1342 0.0490432 80.1312 0.0743311C79.9913 0.218395 79.8084 0.198472 79.6354 0.199238C78.7076 0.203836 77.7799 0.203069 76.8522 0.200004C76.6761 0.200004 76.4985 0.200771 76.3541 0.0712659C76.3578 0.0475106 76.3608 0.0237553 76.3646 0C77.6189 0 78.8724 0 80.1267 0V0Z" fill="white"/>
<path d="M134.442 0.0697333C134.454 0.0475106 134.455 0.0237553 134.447 0H135.275C135.266 0.0237553 135.268 0.0467443 135.279 0.0697333C135 0.251346 134.722 0.251346 134.442 0.0697333Z" fill="white"/>
<path d="M105.551 0.0682007C105.561 0.045978 105.563 0.022989 105.556 0H106.309C106.314 0.0206901 106.316 0.0413802 106.317 0.0628366C106.063 0.253645 105.808 0.247515 105.551 0.068967V0.0682007Z" fill="white"/>
<path d="M76.3541 0.0712891C77.6129 0.0720554 78.8717 0.0728217 80.1305 0.0743543C80.828 1.7196 81.5307 3.36255 82.2215 5.01086C84.016 9.29371 85.8037 13.5796 87.5982 17.8617C87.6351 17.9498 87.6411 18.0671 87.769 18.1238C88.4244 16.5329 89.0813 14.9436 89.7336 13.3528C91.5244 8.98642 93.3136 4.61851 95.1044 0.25137C95.1285 0.192364 95.1601 0.137191 95.1879 0.0804847C96.461 0.0797184 97.7333 0.0781858 99.0064 0.0774195C99.0117 0.204625 99.0215 0.331831 99.0215 0.459037C99.0215 9.48452 99.0207 18.5092 99.029 27.5347C99.029 27.8658 98.9726 27.9884 98.6114 27.9792C97.5588 27.9508 96.5046 27.9523 95.452 27.9784C95.0871 27.9876 94.975 27.9117 94.9757 27.5102C94.9915 22.0082 94.9863 16.5061 94.984 11.0041C94.984 10.8708 95.0284 10.7275 94.9148 10.555C94.5642 11.4294 94.2263 12.27 93.89 13.1122C92.3317 17.0126 90.7705 20.9123 89.2227 24.8174C89.0993 25.1285 88.9519 25.2281 88.62 25.1983C88.0347 25.1454 87.444 25.1377 86.8564 25.1469C86.5825 25.1515 86.4711 25.045 86.3696 24.8006C84.8948 21.2503 83.4095 17.7046 81.9258 14.1582C81.4322 12.9788 80.9371 11.8003 80.3637 10.6278V11.0133C80.3637 16.5283 80.3607 22.0426 80.3713 27.5577C80.3713 27.8834 80.3118 27.9876 79.9687 27.9799C78.8785 27.9531 77.7867 27.96 76.6964 27.9769C76.409 27.9815 76.318 27.9125 76.3202 27.6037C76.3345 25.5615 76.3278 23.5185 76.3278 21.4763C76.3278 14.4938 76.3278 7.51053 76.3285 0.528004C76.3285 0.376276 76.3443 0.223783 76.3533 0.0720554L76.3541 0.0712891Z" fill="white"/>
<path d="M116.994 16.0885C116.843 16.2042 116.922 16.369 116.922 16.5069C116.916 20.1951 116.912 23.8825 116.926 27.5707C116.928 27.9194 116.829 27.9891 116.509 27.983C115.419 27.9623 114.328 27.9661 113.238 27.9815C112.968 27.9853 112.907 27.8964 112.907 27.6351C112.913 18.5621 112.913 9.48912 112.907 0.416129C112.907 0.156353 112.965 0.0705278 113.235 0.0712941C118.148 0.0804897 123.062 0.0797234 127.975 0.0804897C127.98 1.33032 127.978 2.58016 127.995 3.82999C127.999 4.10663 127.84 4.05988 127.682 4.05988C125.501 4.05988 123.321 4.05988 121.14 4.05988C119.85 4.05988 118.559 4.06985 117.268 4.05222C116.977 4.04839 116.922 4.13881 116.923 4.41545C116.934 6.90286 116.936 9.39103 116.922 11.8784C116.919 12.2087 116.989 12.3053 117.329 12.3037C120.738 12.2892 124.146 12.3022 127.555 12.2853C127.926 12.2838 128.008 12.385 127.998 12.7474C127.971 13.7038 127.972 14.6616 127.998 15.6172C128.008 15.9743 127.932 16.0847 127.556 16.0824C124.173 16.0655 120.789 16.0724 117.406 16.0732C117.268 16.0732 117.131 16.0831 116.994 16.0885Z" fill="white"/>
<path d="M145.618 10.1848C145.807 9.99094 145.939 9.86296 146.062 9.72656C148.081 7.48207 151.724 7.18475 154.229 9.00241C155.871 10.194 156.647 11.8339 156.868 13.8109C156.931 14.3696 156.933 14.9297 156.932 15.4914C156.93 19.5114 156.927 23.5315 156.938 27.5515C156.939 27.8718 156.888 27.9898 156.537 27.9798C155.523 27.9515 154.506 27.9568 153.491 27.9775C153.187 27.9837 153.097 27.9162 153.099 27.5882C153.111 23.6832 153.117 19.7781 153.102 15.8731C153.096 14.4179 152.635 13.1527 151.355 12.355C149.35 11.1044 145.993 11.9258 145.662 15.3428C145.629 15.6845 145.62 16.0301 145.62 16.3742C145.617 20.1007 145.614 23.8272 145.626 27.553C145.626 27.8725 145.573 27.989 145.225 27.9798C144.197 27.9522 143.169 27.9614 142.141 27.976C141.889 27.9798 141.802 27.9285 141.802 27.648C141.81 21.2287 141.81 14.8102 141.803 8.3909C141.803 8.1273 141.866 8.0453 142.133 8.04913C143.185 8.06522 144.239 8.06446 145.291 8.04913C145.562 8.0453 145.631 8.13496 145.623 8.39627C145.606 8.96563 145.618 9.53575 145.618 10.1856V10.1848Z" fill="white"/>
<path d="M172.73 17.5782C172.73 15.5743 172.719 13.5705 172.74 11.5673C172.744 11.2011 172.631 11.1152 172.3 11.1367C171.887 11.1635 171.473 11.1367 171.059 11.1459C170.87 11.1505 170.793 11.0953 170.795 10.8876C170.805 10.0324 170.806 9.17725 170.794 8.32283C170.791 8.09217 170.878 8.04543 171.081 8.05156C171.494 8.06382 171.909 8.03394 172.321 8.06229C172.64 8.08374 172.743 8.00482 172.74 7.65232C172.722 5.26606 172.739 2.87904 172.721 0.492779C172.719 0.141047 172.82 0.0743789 173.139 0.0812756C174.142 0.102732 175.145 0.100433 176.147 0.0820419C176.436 0.0766778 176.526 0.147177 176.524 0.455996C176.51 2.84225 176.527 5.22928 176.506 7.61554C176.503 8.00098 176.616 8.07838 176.965 8.06305C177.641 8.03394 178.319 8.06152 178.996 8.05079C179.207 8.04773 179.311 8.07532 179.307 8.33432C179.29 9.17649 179.29 10.0194 179.307 10.8608C179.312 11.1168 179.211 11.1497 178.999 11.1459C178.285 11.1352 177.57 11.1512 176.856 11.1367C176.606 11.1313 176.509 11.1842 176.51 11.4677C176.52 15.2073 176.512 18.9468 176.519 22.6864C176.521 23.8036 176.932 24.2029 178.027 24.2036C178.366 24.2036 178.704 24.2113 179.042 24.2006C179.223 24.1944 179.308 24.2281 179.305 24.4458C179.294 25.5431 179.3 26.6412 179.3 27.7386C179.3 27.8527 179.32 27.9754 179.141 27.9692C178.129 27.9347 177.108 28.0727 176.108 27.8328C174.042 27.3378 172.742 25.6152 172.732 23.3592C172.724 21.4319 172.731 19.5047 172.731 17.5774L172.73 17.5782Z" fill="white"/>
<path d="M107.877 17.9941C107.877 21.1842 107.872 24.3743 107.884 27.5644C107.886 27.8779 107.818 27.9721 107.498 27.9652C106.446 27.943 105.393 27.9499 104.34 27.9622C104.114 27.9645 104.045 27.9139 104.046 27.671C104.054 21.2272 104.053 14.7833 104.048 8.33876C104.048 8.115 104.085 8.03224 104.33 8.0353C105.407 8.05063 106.485 8.05293 107.564 8.0353C107.846 8.0307 107.883 8.13569 107.882 8.38627C107.874 11.5894 107.877 14.7918 107.877 17.9949V17.9941Z" fill="white"/>
<path d="M136.779 18.021C136.779 21.2111 136.775 24.4012 136.786 27.5913C136.787 27.8909 136.713 27.9699 136.419 27.9645C135.366 27.9453 134.313 27.9492 133.26 27.963C133.013 27.966 132.949 27.8948 132.949 27.645C132.956 21.2134 132.956 14.7826 132.949 8.35106C132.949 8.09435 133.023 8.03381 133.264 8.03687C134.33 8.0499 135.395 8.05297 136.46 8.03534C136.731 8.03074 136.785 8.1112 136.785 8.37405C136.776 11.5894 136.779 14.8056 136.779 18.021H136.779Z" fill="white"/>
<path d="M165.757 18.0027C165.757 21.1675 165.751 24.3324 165.766 27.4964C165.768 27.8619 165.657 27.9309 165.329 27.9248C164.339 27.9041 163.349 27.9033 162.359 27.9248C162.037 27.9317 161.936 27.8589 161.938 27.5102C161.954 24.9707 161.947 22.4312 161.947 19.8917C161.947 16.0632 161.951 12.2348 161.94 8.40712C161.94 8.09907 162.002 7.99025 162.326 7.99715C163.341 8.01937 164.357 8.01861 165.372 7.99715C165.683 7.99102 165.766 8.06995 165.765 8.39256C165.752 11.5957 165.757 14.7988 165.757 18.0012V18.0027Z" fill="white"/>
<path d="M12.8213 27.97C10.9808 27.97 9.48728 26.4588 9.4933 24.6052C9.49932 22.73 11.0109 21.2066 12.8551 21.2173C14.6767 21.2281 16.1778 22.7722 16.1635 24.6197C16.1485 26.488 14.6692 27.9707 12.8213 27.97Z" fill="white"/>
<path d="M17.6051 22.7492C17.6051 21.107 18.9038 19.7775 20.5109 19.7744C22.1422 19.7714 23.4416 21.1017 23.4341 22.7668C23.4266 24.4105 22.1256 25.7278 20.5132 25.724C18.9045 25.7201 17.6051 24.3914 17.6051 22.75V22.7492Z" fill="white"/>
<path d="M43.2958 7.9786C41.7247 7.9786 40.4704 6.70577 40.4772 5.1203C40.484 3.53176 41.742 2.25893 43.3025 2.26123C44.8676 2.26353 46.1219 3.54095 46.1196 5.12796C46.1166 6.72263 44.8721 7.97936 43.2958 7.9786Z" fill="white"/>
<path d="M55.3743 5.31057C55.3773 3.89598 56.4969 2.76416 57.8882 2.77029C59.2643 2.77642 60.411 3.94426 60.4028 5.33126C60.3937 6.74049 59.2666 7.88687 57.8867 7.88994C56.4751 7.893 55.3721 6.76041 55.3751 5.31134L55.3743 5.31057Z" fill="white"/>
<path d="M8.1374 22.4234C8.13966 23.8732 7.07122 24.979 5.6642 24.9821C4.23836 24.9851 3.11726 23.8602 3.12553 22.4333C3.13381 21.0172 4.24438 19.8862 5.6341 19.8777C7.02758 19.8693 8.13514 20.9958 8.13665 22.4226L8.1374 22.4234Z" fill="white"/>
<path d="M24.2888 18.8464C24.2798 17.4794 25.3377 16.3904 26.6838 16.3797C28.0141 16.369 29.1073 17.4656 29.1149 18.8196C29.1224 20.1668 28.0442 21.2764 26.7109 21.294C25.3881 21.3109 24.2971 20.2097 24.2881 18.8472L24.2888 18.8464Z" fill="white"/>
<path d="M134.442 0.0698242C134.722 0.0698242 135 0.0698242 135.279 0.0698242C136.486 0.334198 137.326 1.41545 137.214 2.56183C137.087 3.85688 136.12 4.79406 134.888 4.81322C133.678 4.83161 132.673 3.90822 132.531 2.64612C132.394 1.43231 133.19 0.359486 134.442 0.0705905L134.442 0.0698242Z" fill="white"/>
<path d="M105.551 0.0681421C105.806 0.0658432 106.061 0.0643106 106.317 0.0620117C107.534 0.280407 108.386 1.3494 108.299 2.54559C108.206 3.82071 107.228 4.78242 105.993 4.8123C104.794 4.84142 103.743 3.89121 103.615 2.66283C103.486 1.42296 104.297 0.334814 105.551 0.0673758V0.0681421Z" fill="white"/>
<path d="M36.9265 6.80469C38.2222 6.80622 39.2492 7.85452 39.2334 9.15953C39.2176 10.4791 38.2004 11.4937 36.8972 11.4898C35.6294 11.486 34.6076 10.4408 34.6091 9.14803C34.6106 7.83153 35.6271 6.80316 36.9265 6.80469Z" fill="white"/>
<path d="M63.511 11.2302C63.5065 12.4662 62.5133 13.4762 61.3124 13.4662C60.0807 13.4555 59.1154 12.447 59.1236 11.1796C59.1319 9.92515 60.0898 8.96038 61.3245 8.96192C62.5727 8.96345 63.5155 9.94125 63.511 11.2302Z" fill="white"/>
<path d="M32.1487 16.3275C30.9102 16.3244 29.9478 15.3321 29.9561 14.0669C29.9644 12.8362 30.947 11.8431 32.1599 11.8408C33.3879 11.8385 34.3736 12.8447 34.3698 14.0976C34.366 15.3604 33.3992 16.3313 32.1479 16.3283L32.1487 16.3275Z" fill="white"/>
<path d="M4.40618 10.7895C4.4122 11.9228 3.51908 12.8363 2.40549 12.8347C1.29567 12.8332 0.392771 11.9213 0.388256 10.7964C0.384494 9.67833 1.29041 8.7534 2.39872 8.74421C3.50177 8.73501 4.40016 9.65074 4.40618 10.7887V10.7895Z" fill="white"/>
<path d="M3.53639 6.47514C3.53263 5.39696 4.37684 4.52338 5.42797 4.51954C6.48362 4.51571 7.33536 5.37627 7.34062 6.45292C7.34589 7.53034 6.50845 8.39779 5.44979 8.41311C4.41823 8.42767 3.54015 7.53877 3.53639 6.47514Z" fill="white"/>
<path d="M63.1228 17.3008C63.116 18.3751 62.262 19.2303 61.2026 19.2257C60.1575 19.2211 59.2907 18.3291 59.302 17.2701C59.3125 16.2134 60.2064 15.3176 61.2327 15.3352C62.2868 15.3536 63.1303 16.231 63.1235 17.3008H63.1228Z" fill="white"/>
<path d="M9.68665 5.20858C8.7529 5.21011 7.9937 4.44381 7.98693 3.49206C7.97941 2.51733 8.73634 1.74567 9.69342 1.75026C10.64 1.75486 11.3864 2.50354 11.3999 3.46065C11.4135 4.41852 10.64 5.20704 9.68665 5.20858Z" fill="white"/>
<path d="M58.0582 19.8824C59.0017 19.8724 59.7609 20.6188 59.7797 21.5743C59.7986 22.546 59.0476 23.3391 58.0988 23.3483C57.1696 23.3575 56.3901 22.5951 56.3653 21.6533C56.3404 20.7015 57.1147 19.8916 58.0582 19.8816V19.8824Z" fill="white"/>
<path d="M54.041 22.6726C54.9793 22.6749 55.7332 23.4366 55.7378 24.3876C55.743 25.3501 54.9725 26.1309 54.0207 26.1279C53.0825 26.1248 52.3233 25.3516 52.3315 24.4067C52.3398 23.4106 53.0689 22.6711 54.041 22.6734V22.6726Z" fill="white"/>
<path d="M14.1628 4.06993C13.3238 4.07683 12.6482 3.40938 12.6399 2.56645C12.6324 1.73042 13.305 1.02619 14.1267 1.00933C14.9355 0.992472 15.6383 1.6944 15.6488 2.52967C15.6594 3.3749 14.9957 4.06304 14.1628 4.0707V4.06993Z" fill="white"/>
<path d="M49.5852 23.8089C50.4279 23.8119 51.0863 24.4832 51.0803 25.3315C51.0743 26.1936 50.4001 26.8503 49.5295 26.8442C48.7282 26.8381 48.0744 26.1507 48.0759 25.3147C48.0774 24.4656 48.7395 23.8051 49.5852 23.8081V23.8089Z" fill="white"/>
<path d="M23.2362 4.4139C23.2325 5.13652 22.6531 5.72887 21.9473 5.73193C21.2333 5.73577 20.6216 5.11276 20.6313 4.39244C20.6411 3.67595 21.231 3.079 21.9308 3.07594C22.6553 3.07287 23.24 3.67289 23.2362 4.41313V4.4139Z" fill="white"/>
<path d="M45.3062 26.3362C44.5967 26.3285 44.0271 25.7408 44.0256 25.0151C44.0241 24.284 44.6313 23.671 45.3446 23.6848C46.0594 23.6986 46.6538 24.33 46.6327 25.0519C46.6116 25.7645 46.0127 26.3446 45.3062 26.337V26.3362Z" fill="white"/>
<path d="M18.2116 1.65055C18.967 1.66817 19.4975 2.22834 19.4862 2.99694C19.4756 3.7119 18.8782 4.30118 18.1777 4.28739C17.4501 4.27359 16.8813 3.66668 16.8993 2.92491C16.9174 2.19462 17.4953 1.63293 18.2116 1.64978V1.65055Z" fill="white"/>
<path d="M25.0503 7.67153C24.3822 7.66233 23.8728 7.12822 23.8826 6.44698C23.8924 5.77647 24.4371 5.23086 25.085 5.24312C25.7712 5.25615 26.2843 5.80176 26.2678 6.50062C26.252 7.18416 25.735 7.68072 25.0503 7.67153Z" fill="white"/>
<path d="M41.7428 24.6757C41.0784 24.6627 40.569 24.1194 40.5855 23.4412C40.6013 22.7646 41.1348 22.245 41.8007 22.2573C42.4892 22.2703 42.9888 22.8075 42.9715 23.5171C42.9549 24.1945 42.4305 24.6888 41.7435 24.675L41.7428 24.6757Z" fill="white"/>
<path d="M38.5419 20.5154C39.1642 20.5154 39.6337 20.9882 39.6367 21.6181C39.6405 22.225 39.1409 22.7338 38.5397 22.7361C37.934 22.7392 37.4554 22.2442 37.4554 21.6143C37.4554 20.9713 37.9069 20.5146 38.5419 20.5154Z" fill="white"/>
<path d="M27.7989 7.72419C28.4121 7.7173 28.8952 8.20007 28.902 8.82613C28.908 9.4453 28.4219 9.95336 27.8192 9.95566C27.215 9.95872 26.7184 9.46216 26.7094 8.84606C26.7004 8.23378 27.1887 7.73109 27.7989 7.72419Z" fill="white"/>
</g>
<defs>
<clipPath id="clip0_208_1769">
<rect width="199" height="36" fill="white"/>
</clipPath>
</defs>
</svg>
