<svg width="127" height="79" viewBox="0 0 127 79" fill="none" xmlns="http://www.w3.org/2000/svg">
<path d="M38.8215 59.4325C37.0081 61.3017 36.1001 64.0319 36.1001 67.6203C36.1001 70.5768 36.6933 72.9147 37.8768 74.6339C39.0603 76.353 40.6611 77.2114 42.6763 77.2114C43.8598 77.2114 44.9175 76.8954 45.8518 76.2637C46.8095 75.6317 47.6152 74.7208 48.2711 73.5334H48.4234L48.3107 76.6427H53.3754V57.5001C50.8062 56.8945 48.5626 56.589 46.6495 56.589C43.2434 56.589 40.6375 57.537 38.8215 59.4325ZM48.2319 67.9626C47.576 69.3525 46.8724 70.4638 46.1167 71.2983C45.3609 72.1328 44.5923 72.5488 43.8128 72.5488C43.007 72.5488 42.3772 72.0931 41.9232 71.1851C41.4693 70.2503 41.2436 68.9867 41.2436 67.3939C41.2436 65.372 41.6214 63.8423 42.3772 62.8076C43.1594 61.7704 44.3033 61.2543 45.815 61.2543C46.6205 61.2543 47.4264 61.3675 48.2346 61.5966V67.9626H48.2319Z" fill="white"/>
<path d="M78.5426 48.9703H77.3126C75.9726 48.9703 74.8862 50.0736 74.8862 51.4345C74.8862 52.7955 75.9726 53.8988 77.3126 53.8988H78.5426C79.8827 53.8988 80.9691 52.7955 80.9691 51.4345C80.9691 50.0736 79.8827 48.9703 78.5426 48.9703Z" fill="white"/>
<path d="M28.8229 72.5883C27.0333 72.5883 25.6477 72.1091 24.6663 71.1482C23.7082 70.1873 23.2306 68.8235 23.2306 67.0542C23.2306 65.3114 23.6978 63.9083 24.6295 62.8471C25.5872 61.7861 26.8467 61.2543 28.4084 61.2543C29.0119 61.2543 29.6547 61.3437 30.3343 61.5202C31.0404 61.6729 31.6832 61.8863 32.2606 62.1653L33.2815 57.6528C32.7278 57.3737 31.9326 57.1339 30.9012 56.9314C29.8936 56.7049 28.9225 56.589 27.991 56.589C26.0019 56.589 24.2489 57.0446 22.7375 57.9529C21.2257 58.8376 20.0556 60.1013 19.2237 61.7441C18.3919 63.3606 17.9771 65.2326 17.9771 67.3544C17.9771 70.4872 18.8587 72.9147 20.6221 74.6339C22.4121 76.353 24.9182 77.2114 28.1432 77.2114C30.0325 77.2114 31.7962 76.8822 33.4336 76.2268L32.6409 71.9039C31.2792 72.3593 30.0089 72.5883 28.8229 72.5883Z" fill="white"/>
<path d="M95.7845 56.589C94.3728 56.589 93.1395 56.905 92.0817 57.537C91.0243 58.1687 90.0926 59.1536 89.2844 60.4934V57.121H84.0701V76.6453H89.3971V65.3087C89.8748 64.1451 90.5677 63.1868 91.4756 62.4285C92.3835 61.6703 93.3387 61.2913 94.3466 61.2913C95.2021 61.2913 95.8842 61.5808 96.3881 62.1627C96.892 62.7181 97.1439 63.5028 97.1439 64.5138V76.6453H102.471V63.679C102.471 61.4546 101.878 59.7248 100.695 58.4847C99.5137 57.221 97.8759 56.589 95.7845 56.589Z" fill="white"/>
<path d="M125.003 61.4409C124.197 59.8978 123.037 58.7107 121.526 57.8759C120.04 57.0177 118.314 56.5859 116.348 56.5859C114.383 56.5859 112.645 57.0151 111.134 57.8759C109.648 58.7343 108.489 59.948 107.657 61.5144C106.851 63.0573 106.447 64.8501 106.447 66.8983C106.447 68.9467 106.862 70.7529 107.693 72.3194C108.526 73.8619 109.683 75.0626 111.171 75.9208C112.682 76.7791 114.419 77.2109 116.385 77.2109C118.324 77.2109 120.038 76.7817 121.523 75.9208C123.035 75.0361 124.194 73.8092 125 72.2428C125.832 70.65 126.247 68.8309 126.247 66.7826C126.252 64.766 125.835 62.9835 125.003 61.4409ZM119.599 71.032C118.794 72.069 117.71 72.5852 116.351 72.5852C114.991 72.5852 113.895 72.0666 113.062 71.032C112.257 69.9708 111.853 68.5809 111.853 66.8614C111.853 65.1423 112.257 63.7786 113.062 62.7678C113.895 61.7305 114.989 61.2142 116.351 61.2142C117.71 61.2142 118.794 61.733 119.599 62.7678C120.431 63.7786 120.846 65.1423 120.846 66.8614C120.846 68.5809 120.431 69.9708 119.599 71.032Z" fill="white"/>
<path d="M69.1916 66.1432C68.4858 65.7378 67.6039 65.3219 66.5465 64.8929C66.4204 64.8427 65.9796 64.6768 65.2238 64.4003C64.266 64.0714 63.5864 63.7819 63.1823 63.5289C62.7779 63.2763 62.5785 62.8972 62.5785 62.3916C62.5785 61.8599 62.8174 61.4572 63.2975 61.1781C63.8014 60.899 64.4681 60.762 65.2998 60.762C66.1055 60.762 66.9635 60.9017 67.8689 61.1781C68.8004 61.4307 69.6326 61.7732 70.362 62.2022L71.0809 57.6897C69.0157 56.9579 67.0504 56.589 65.187 56.589C62.82 56.589 60.8912 57.1446 59.4059 58.2583C57.9443 59.3456 57.2148 60.8753 57.2148 62.8445C57.2148 64.0821 57.493 65.0825 58.0467 65.8404C58.6003 66.5988 59.2172 67.1674 59.8993 67.5466C60.5791 67.8994 61.4608 68.2786 62.5444 68.6839L63.5653 69.0629C64.699 69.4684 65.4679 69.8081 65.8694 70.0872C66.2736 70.3398 66.473 70.7058 66.473 71.1877C66.473 71.7931 66.1842 72.2618 65.6043 72.5908C65.0244 72.8938 64.3078 73.0465 63.4498 73.0465C62.5419 73.0465 61.5735 72.8831 60.5395 72.5539C59.5056 72.2249 58.5609 71.7957 57.7054 71.264L57.2148 75.8134C58.0203 76.2426 58.9914 76.5847 60.1251 76.8377C61.2849 77.0903 62.4815 77.2165 63.7149 77.2165C66.158 77.2165 68.1237 76.698 69.6089 75.6633C71.0942 74.626 71.8395 73.0727 71.8395 71.0007C71.8395 69.7633 71.5744 68.7522 71.0469 67.9679C70.5143 67.1542 69.8974 66.5462 69.1916 66.1432Z" fill="white"/>
<path d="M80.2652 57.1213H74.9304V61.7074H74.9357V72.0569V76.6456H80.2652V72.0569V57.1213Z" fill="white"/>
<path d="M86.2965 18.9726C84.5687 18.9726 83.0385 19.3408 81.7091 20.0739C80.3798 20.7754 79.1992 21.8903 78.1709 23.4255V12.4462C78.1709 10.4979 76.5958 8.9209 74.657 8.9209C72.718 8.9209 71.1431 10.5014 71.1431 12.4462V45.4326H78.1709V29.827C78.8702 28.4271 79.7668 27.3089 80.8643 26.475C81.9932 25.607 83.1736 25.1762 84.4025 25.1762C85.5312 25.1762 86.4315 25.5581 87.0962 26.3259C87.761 27.0587 88.0933 28.0939 88.0933 29.4275V45.4326H95.1211V28.3262C95.1211 25.3916 94.339 23.1096 92.7774 21.4735C91.2159 19.8063 89.0558 18.9726 86.2965 18.9726Z" fill="#EBBC44"/>
<path d="M26.1959 18.9729C25.0118 18.9729 23.9042 19.157 22.8759 19.5251C23.5578 18.3096 23.4816 17.257 23.6824 15.9337C23.9178 14.3915 22.2317 12.9986 21.3594 12.4986C21.5153 12.6653 21.8755 13.2071 22.0728 14.0234C22.2698 14.8397 21.7712 15.2635 21.4945 15.3745C21.4218 15.0134 20.8712 13.5996 19.2615 10.8385C17.25 7.38587 13.6182 4.52733 9.92076 2.71078C6.96412 1.25198 2.4115 0.467003 0.503906 0.255127C1.06475 0.598987 2.60193 1.63056 4.2568 3.00948C6.32364 4.73573 7.77079 7.56649 8.6917 10.55C9.42913 12.9398 9.05869 15.7844 8.78175 16.9063L14.0787 21.0119C13.625 21.0707 11.8387 21.0119 11.0459 20.7687C9.89304 20.4179 8.85095 19.5007 8.44936 19.3793C8.73326 19.9594 8.76786 22.6269 10.6997 24.0684C12.6314 25.5097 14.4525 26.1524 15.8374 27.0205C16.5297 27.7154 17.4508 28.9309 17.4508 32.057C17.4508 34.3738 16.9314 39.6983 16.7963 41.2613C18.4892 36.2249 18.7041 32.1436 18.8356 29.2782C19.0018 25.6972 17.9596 22.224 15.8374 16.8958C14.141 12.634 10.672 6.86141 9.15216 4.50648C10.2566 5.76731 12.2576 8.19864 15.0308 12.4951C17.804 16.7952 18.3197 18.6848 19.3585 21.8106C19.3688 21.7861 19.3825 21.783 19.3999 21.7932L20.719 26.958C20.9579 26.7045 21.207 26.4753 21.4632 26.2739C22.3944 25.5062 23.3916 25.1242 24.4544 25.1242C25.7495 25.1242 26.7466 25.7251 27.4459 26.9235C28.1763 28.1249 28.5433 29.8063 28.5433 31.9735C28.5433 34.6065 27.9961 36.607 26.8987 37.9756C25.8358 39.3441 24.2745 40.0248 22.2112 40.0248C21.9998 40.0248 21.7956 40.0178 21.588 40.0073C21.2659 39.9172 20.9233 39.8685 20.5701 39.8685C18.6589 39.8685 17.1082 41.2683 17.1082 42.9945C17.1082 44.6825 18.5897 46.0512 20.4385 46.1134C20.4072 46.1621 20.5769 46.176 21.4599 46.176C26.0127 46.176 29.5022 44.9258 31.929 42.4249C34.3563 39.9241 35.5677 36.305 35.5677 31.5706C35.5677 27.6042 34.7368 24.5198 33.0751 22.3178C31.4134 20.0913 29.1212 18.9729 26.1959 18.9729Z" fill="#EBBC44"/>
<path d="M64.8063 25.7519C63.7436 23.7163 62.2134 22.1501 60.2193 21.0488C58.2599 19.9165 55.9817 19.3469 53.3883 19.3469C50.7955 19.3469 48.5036 19.9131 46.5095 21.0488C44.5498 22.1811 43.0196 23.7824 41.9221 25.8489C41.8632 25.9639 41.8115 26.0818 41.7559 26.1998L41.7734 26.2103C41.4583 26.7384 41.2749 27.3564 41.2749 28.0164C41.2749 29.965 42.85 31.5452 44.7923 31.5452C46.3779 31.5452 47.7211 30.4895 48.1572 29.0412C48.3963 28.4751 48.6906 27.9573 49.0541 27.5025C50.1516 26.134 51.5951 25.453 53.3921 25.453C55.1854 25.453 56.6152 26.1374 57.6781 27.5025C58.1384 28.0618 58.4952 28.7041 58.7617 29.4268H58.7861C59.3295 30.6736 60.5653 31.5452 62.0091 31.5452C63.9515 31.5452 65.5265 29.965 65.5265 28.0164C65.5265 27.3843 65.3603 26.7937 65.0695 26.2833C64.9866 26.1061 64.8999 25.9255 64.8063 25.7519Z" fill="#DFBC8E"/>
<path d="M123.544 25.7519C122.481 23.7163 120.951 22.1501 118.957 21.0488C116.997 19.9165 114.719 19.3469 112.126 19.3469C109.533 19.3469 107.241 19.9131 105.247 21.0488C103.287 22.1811 101.757 23.7824 100.66 25.8489C100.601 25.9639 100.549 26.0818 100.493 26.1998L100.511 26.2103C100.196 26.7384 100.012 27.3564 100.012 28.0164C100.012 29.965 101.588 31.5452 103.53 31.5452C105.115 31.5452 106.459 30.4895 106.895 29.0412C107.134 28.4751 107.428 27.9573 107.792 27.5025C108.889 26.134 110.333 25.453 112.13 25.453C113.923 25.453 115.353 26.1374 116.416 27.5025C116.876 28.0618 117.233 28.7041 117.499 29.4268H117.524C118.067 30.6736 119.303 31.5452 120.747 31.5452C122.689 31.5452 124.264 29.965 124.264 28.0164C124.264 27.3843 124.098 26.7937 123.807 26.2833C123.724 26.1061 123.637 25.9255 123.544 25.7519Z" fill="#EBBC44"/>
<path d="M61.9537 34.3904C60.5376 34.3904 59.3192 35.2412 58.7755 36.457L58.7549 36.4467C58.4883 37.1725 58.1351 37.829 57.6814 38.4057C56.6186 39.7742 55.1889 40.4549 53.3956 40.4549C51.6022 40.4549 50.1551 39.7707 49.0576 38.4057C48.6766 37.9053 48.372 37.3462 48.1264 36.7348C47.6587 35.3352 46.3468 34.3279 44.7923 34.3279C42.85 34.3279 41.2749 35.9084 41.2749 37.8569C41.2749 38.4784 41.4373 39.0619 41.718 39.5693L41.711 39.5727C41.7973 39.7534 41.8807 39.934 41.9707 40.1076C43.0681 42.1428 44.595 43.7268 46.5578 44.8591C48.5518 45.9913 50.844 46.561 53.4371 46.561C55.9955 46.561 58.2564 45.9947 60.2158 44.8591C62.2099 43.692 63.7401 42.0736 64.8029 40.0067C64.8896 39.8435 64.9621 39.6768 65.0417 39.5101L65.0384 39.5066C65.2911 39.0202 65.4363 38.4715 65.4363 37.8879C65.4401 35.9567 63.8785 34.3904 61.9537 34.3904Z" fill="#DFBC8E"/>
<path d="M64.8063 25.7519C63.7436 23.7163 62.2134 22.1501 60.2193 21.0488C58.2599 19.9165 55.9817 19.3469 53.3883 19.3469C50.7955 19.3469 48.5036 19.9131 46.5095 21.0488C44.5498 22.1811 43.0196 23.7824 41.9221 25.8489C41.8632 25.9639 41.8115 26.0818 41.7559 26.1998L41.7734 26.2103C41.4583 26.7384 41.2749 27.3564 41.2749 28.0164C41.2749 29.965 42.85 31.5452 44.7923 31.5452C46.3779 31.5452 47.7211 30.4895 48.1572 29.0412C48.3963 28.4751 48.6906 27.9573 49.0541 27.5025C50.1516 26.134 51.5951 25.453 53.3921 25.453C55.1854 25.453 56.6152 26.1374 57.6781 27.5025C58.1384 28.0618 58.4952 28.7041 58.7617 29.4268H58.7861C59.3295 30.6736 60.5653 31.5452 62.0091 31.5452C63.9515 31.5452 65.5265 29.965 65.5265 28.0164C65.5265 27.3843 65.3603 26.7937 65.0695 26.2833C64.9866 26.1061 64.8999 25.9255 64.8063 25.7519Z" fill="#EBBC44"/>
<path d="M61.9537 34.3904C60.5376 34.3904 59.3192 35.2412 58.7755 36.457L58.7549 36.4467C58.4883 37.1725 58.1351 37.829 57.6814 38.4057C56.6186 39.7742 55.1889 40.4549 53.3956 40.4549C51.6022 40.4549 50.1551 39.7707 49.0576 38.4057C48.6766 37.9053 48.372 37.3462 48.1264 36.7348C47.6587 35.3352 46.3468 34.3279 44.7923 34.3279C42.85 34.3279 41.2749 35.9084 41.2749 37.8569C41.2749 38.4784 41.4373 39.0619 41.718 39.5693L41.711 39.5727C41.7973 39.7534 41.8807 39.934 41.9707 40.1076C43.0681 42.1428 44.595 43.7268 46.5578 44.8591C48.5518 45.9913 50.844 46.561 53.4371 46.561C55.9955 46.561 58.2564 45.9947 60.2158 44.8591C62.2099 43.692 63.7401 42.0736 64.8029 40.0067C64.8896 39.8435 64.9621 39.6768 65.0417 39.5101L65.0384 39.5066C65.2911 39.0202 65.4363 38.4715 65.4363 37.8879C65.4401 35.9567 63.8785 34.3904 61.9537 34.3904Z" fill="#EBBC44"/>
<path d="M120.691 34.3904C119.275 34.3904 118.057 35.2412 117.513 36.457L117.492 36.4467C117.226 37.1725 116.873 37.829 116.419 38.4057C115.356 39.7742 113.926 40.4549 112.133 40.4549C110.34 40.4549 108.893 39.7707 107.795 38.4057C107.414 37.9053 107.11 37.3462 106.864 36.7348C106.396 35.3352 105.084 34.3279 103.53 34.3279C101.588 34.3279 100.012 35.9084 100.012 37.8569C100.012 38.4784 100.175 39.0619 100.456 39.5693L100.449 39.5727C100.535 39.7534 100.618 39.934 100.708 40.1076C101.806 42.1428 103.333 43.7268 105.295 44.8591C107.289 45.9913 109.582 46.561 112.175 46.561C114.733 46.561 116.994 45.9947 118.953 44.8591C120.947 43.692 122.478 42.0736 123.54 40.0067C123.627 39.8435 123.7 39.6768 123.779 39.5101L123.776 39.5066C124.029 39.0202 124.174 38.4715 124.174 37.8879C124.178 35.9567 122.616 34.3904 120.691 34.3904Z" fill="#EBBC44"/>
</svg>
