<svg width="46" height="45" viewBox="0 0 46 45" fill="none" xmlns="http://www.w3.org/2000/svg">
<path d="M28.9557 33.7315C31.596 33.7315 34.2364 33.7261 36.8781 33.7342C38.0925 33.7368 38.8825 34.8388 38.462 35.922C38.2076 36.5767 37.6105 36.9436 36.7844 36.9436C31.7366 36.9436 26.6902 36.9436 21.6424 36.9436C21.4081 36.9436 21.1738 36.9476 20.9408 36.9436C20.0076 36.9235 19.3007 36.2313 19.2993 35.3409C19.298 34.4451 19.9996 33.7395 20.9341 33.7355C23.608 33.7261 26.2818 33.7328 28.9557 33.7328V33.7315Z" fill="#FBBF2F"/>
<path d="M30.5247 20.882C28.4534 20.882 26.3807 20.8833 24.3094 20.882C23.249 20.882 22.5166 20.2272 22.5112 19.2846C22.5072 18.3367 23.2343 17.6712 24.2893 17.6712C28.4668 17.6699 32.6442 17.6685 36.8217 17.6712C37.8393 17.6712 38.565 18.3407 38.5703 19.2659C38.5757 20.1938 37.8487 20.878 36.8404 20.8806C34.7356 20.8846 32.6295 20.8806 30.5247 20.8806V20.882Z" fill="#FBBF2F"/>
<path d="M30.5501 25.7007C32.6214 25.7007 34.6941 25.7007 36.7654 25.7007C37.8298 25.7007 38.5609 26.3487 38.5703 27.2913C38.5783 28.254 37.8419 28.9114 36.7453 28.9128C32.6013 28.9128 28.4573 28.9128 24.3134 28.9128C23.2503 28.9128 22.5179 28.2621 22.5098 27.3208C22.5018 26.3568 23.2369 25.702 24.3335 25.702C26.4048 25.7007 28.4774 25.702 30.5488 25.702L30.5501 25.7007Z" fill="#FBBF2F"/>
<path d="M23.2962 12.8524C22.0095 12.8524 20.7241 12.8551 19.4374 12.8524C18.4238 12.8498 17.6954 12.179 17.6914 11.2538C17.6874 10.3232 18.4091 9.64303 19.42 9.6417C22.0095 9.63768 24.5976 9.63902 27.1871 9.6417C28.202 9.6417 28.929 10.3125 28.9344 11.2377C28.9384 12.1656 28.2127 12.8471 27.2045 12.8511C25.9017 12.8551 24.5989 12.8511 23.2962 12.8511V12.8524Z" fill="#FBBF2F"/>
<path d="M45 11.4332C45 10.8628 44.8273 10.3995 44.4216 9.99517C41.2711 6.85271 38.126 3.70489 34.9808 0.55707C34.6354 0.210288 34.2364 0.00275403 33.7383 0.00275403C27.2807 0.00409296 20.8244 -0.0106352 14.3667 0.0134655C12.0731 0.021499 10.1156 1.73265 9.75143 3.98874C9.53988 5.29955 9.68717 6.62643 9.66708 7.94527C9.65235 8.91733 10.3566 9.63901 11.2658 9.64035C12.1762 9.64035 12.8658 8.92269 12.8725 7.95063C12.8792 6.93036 12.8685 5.9101 12.8765 4.88984C12.8845 3.89502 13.5526 3.2202 14.5475 3.2202C20.2848 3.21618 26.0234 3.22153 31.7607 3.20815C32.1196 3.20815 32.1557 3.33802 32.153 3.63526C32.1396 5.0572 32.1437 6.47914 32.1477 7.90108C32.1584 10.7476 34.2444 12.8417 37.0816 12.8524C38.4861 12.8578 39.892 12.8658 41.2966 12.8444C41.6715 12.839 41.7933 12.914 41.7933 13.3224C41.7799 22.1888 41.7826 31.0538 41.7826 39.9202C41.7826 41.144 41.1586 41.7612 39.9242 41.7626C35.5914 41.7626 31.2586 41.7626 26.9272 41.7626C24.9536 41.7626 22.9787 41.7599 21.0051 41.7626C20.2259 41.7639 19.6434 42.1508 19.3997 42.8109C18.9914 43.9182 19.8028 44.972 21.0734 44.972C27.3463 44.9746 33.6192 44.9733 39.8934 44.972C42.9408 44.972 44.9947 42.9247 44.996 39.8867C44.9973 35.2031 44.996 30.5182 44.996 25.8347C44.996 21.0333 44.992 16.2332 45.0014 11.4318L45 11.4332ZM36.8192 9.62562C36.0265 9.58947 35.3865 8.90528 35.3651 8.10326C35.3423 7.26911 35.3598 6.43362 35.3598 5.6865C36.6572 6.98526 37.9934 8.32151 39.3056 9.635C38.5451 9.635 37.6801 9.66445 36.8192 9.62562Z" fill="#FBBF2F"/>
<path d="M19.2107 21.2515C18.5948 15.8556 13.282 11.9232 7.95839 12.9903C4.18931 13.7455 1.59314 15.9802 0.468437 19.6582C-0.656262 23.3376 0.266259 26.6139 2.95482 29.3721C3.15968 29.5823 3.24403 29.7778 3.24269 30.067C3.23198 32.2575 3.236 34.448 3.236 36.6385C3.236 38.7955 3.236 40.9525 3.236 43.1095C3.236 43.9959 3.57073 44.5904 4.24287 44.8474C5.01409 45.1433 5.63 44.8782 6.18164 44.3119C7.22064 43.2461 8.29179 42.2124 9.32142 41.1373C9.60661 40.84 9.75122 40.8829 10.011 41.1506C11.046 42.2191 12.1131 43.2581 13.1521 44.3239C13.6877 44.8729 14.2862 45.15 15.0427 44.8595C15.755 44.5863 16.0843 44.0119 16.0843 43.0961C16.0843 38.7647 16.087 34.4346 16.079 30.1032C16.079 29.8006 16.1553 29.5863 16.3762 29.3627C18.6069 27.112 19.5696 24.41 19.2094 21.2515H19.2107ZM12.8575 39.4355C12.3099 38.8986 11.7569 38.4246 11.2843 37.8823C10.1904 36.6264 9.14334 36.617 8.05881 37.8649C7.58216 38.4125 7.02516 38.8905 6.44942 39.4542V38.671C6.44942 36.4309 6.44942 34.1922 6.44942 31.9522C6.44942 31.7527 6.39453 31.5371 6.74533 31.6523C8.72962 32.3057 10.7139 32.2762 12.6942 31.6255C12.7384 31.6108 12.7919 31.6242 12.8575 31.6242V39.4355ZM9.66017 28.9129C6.09862 28.9008 3.2293 26.0194 3.23868 22.4619C3.24671 18.9178 6.14817 16.0525 9.71373 16.0658C13.2498 16.0792 16.1031 18.9887 16.087 22.5663C16.071 26.0449 13.1561 28.9249 9.66151 28.9129H9.66017Z" fill="#FBBF2F"/>
</svg>
