<svg width="53" height="51" viewBox="0 0 53 51" fill="none" xmlns="http://www.w3.org/2000/svg">
<g clip-path="url(#clip0_752_596)" filter="url(#filter0_d_752_596)">
<path d="M49 20.9893C49 20.2772 48.6926 19.7636 48.0672 19.4333C47.7633 19.2733 47.4324 19.2196 47.0909 19.215C46.7108 19.2091 46.3306 19.215 45.9492 19.2103C45.6958 19.208 45.5714 19.0924 45.5761 18.8379C45.5784 18.7072 45.5749 18.5765 45.5749 18.4446C45.5749 16.4508 45.5867 14.4559 45.5691 12.4621C45.5585 11.2551 44.7993 10.5139 43.5861 10.4812C43.3373 10.4742 43.0886 10.4789 42.8398 10.4789C42.3219 10.4789 42.0626 10.2252 42.0619 9.7178C42.0595 8.29135 42.0795 6.86491 42.0548 5.43847C42.0349 4.277 41.2839 3.54043 40.1223 3.49491C39.9463 3.4879 39.7714 3.4914 39.5954 3.4914C35.7033 3.4914 31.8113 3.48673 27.9192 3.49724C27.4768 3.49841 27.1401 3.37351 26.8315 3.05483C26.07 2.26924 25.2897 1.49998 24.507 0.735401C23.5026 -0.245134 22.4266 -0.245134 21.4258 0.735401C20.6537 1.49065 19.8804 2.24472 19.133 3.02448C18.8021 3.37 18.443 3.50074 17.969 3.49841C15.0719 3.48323 12.1749 3.49374 9.27783 3.48907C8.47172 3.48907 7.69964 3.65016 6.98741 4.00852C5.30127 4.85481 4.2159 6.15402 4 8.07657V34.3689C4.10795 34.9362 4.11382 35.5187 4.30156 36.0755C5.53477 39.7362 8.94928 42.1863 12.8378 42.1863C22.9195 42.1863 33.0011 42.1863 43.0827 42.1863C43.2728 42.1863 43.4629 42.1898 43.6529 42.1817C44.7923 42.1315 45.5233 41.4007 45.5702 40.2638C45.5773 40.0887 45.5738 39.9148 45.5738 39.7397C45.5738 37.8475 45.5726 35.9553 45.5738 34.0631C45.5738 33.4806 45.6043 33.4572 46.1992 33.4514C46.5653 33.4479 46.9313 33.4689 47.2963 33.4397C48.3218 33.3557 48.9883 32.6903 48.9918 31.6888C49.0035 28.1227 48.993 24.5554 48.9988 20.9893H49ZM31.7538 7.11588C33.8435 7.11588 35.9345 7.12405 38.0243 7.10771C38.354 7.10537 38.4361 7.18475 38.4279 7.51043C38.4033 8.44077 38.4115 9.37111 38.4244 10.3026C38.4279 10.5466 38.3646 10.619 38.1135 10.6166C36.9002 10.6038 35.6869 10.6096 34.4736 10.612C34.3411 10.612 34.2237 10.6096 34.1158 10.5022C33.0069 9.39562 31.8922 8.29252 30.7071 7.11705H31.7538V7.11588ZM19.0544 8.23766C20.277 7.02483 21.4985 5.812 22.7141 4.59334C22.8819 4.42525 22.9769 4.34704 23.1917 4.56299C25.1571 6.53806 27.1366 8.49913 29.1113 10.4649C29.1383 10.4917 29.1571 10.5267 29.2017 10.5886H16.6712C17.5032 9.76799 18.2811 9.00574 19.0544 8.23883V8.23766ZM9.15697 7.12639C11.14 7.09954 13.1241 7.11821 15.2092 7.11821C14.037 8.28435 12.9317 9.37928 11.8323 10.4812C11.7278 10.5851 11.6211 10.6131 11.4838 10.612C10.7246 10.6073 9.96425 10.6248 9.20508 10.6049C8.26756 10.5804 7.52364 9.80885 7.51308 8.88668C7.50252 7.95984 8.22883 7.13923 9.15814 7.12639H9.15697ZM41.9351 38.298C41.9351 38.507 41.8788 38.5934 41.6664 38.563C41.5948 38.5525 41.5209 38.5619 41.447 38.5619C31.9814 38.5619 22.517 38.5619 13.0514 38.5619C9.77182 38.5619 7.5119 36.316 7.51073 33.058C7.51073 26.8141 7.51073 20.5714 7.51073 14.3275V13.8057C8.80731 14.2563 10.1168 14.0975 11.411 14.0987C21.4175 14.1092 31.4241 14.108 41.4306 14.0929C41.8647 14.0929 41.948 14.2061 41.9398 14.6135C41.9117 16.0679 41.9187 17.5247 41.9375 18.9792C41.9422 19.2955 41.846 19.3492 41.5491 19.3527C40.1751 19.3714 38.7975 19.2488 37.4282 19.4228C34.151 19.8371 31.5238 22.6982 31.3971 25.9748C31.2645 29.4032 33.5666 32.4312 36.8521 33.1432C37.3965 33.2611 37.9457 33.3253 38.5054 33.3218C39.5438 33.316 40.5822 33.3218 41.6218 33.3183C41.8131 33.3183 41.9398 33.3125 41.9375 33.5833C41.9222 35.1545 41.9257 36.7269 41.9351 38.2992V38.298ZM45.0704 29.8339C43.9299 29.8141 42.7893 29.8258 41.6488 29.8258C40.5963 29.8258 39.5426 29.8304 38.4901 29.8258C36.4684 29.8141 34.8984 28.2697 34.9078 26.3098C34.9172 24.3733 36.4872 22.8476 38.4913 22.8406C40.6855 22.8336 42.8785 22.8465 45.0727 22.8313C45.3848 22.8289 45.4541 22.9107 45.4517 23.213C45.4376 25.2931 45.4376 27.3744 45.4517 29.4546C45.4541 29.7592 45.3813 29.8409 45.0715 29.8351L45.0704 29.8339Z" fill="#FBBF2F"/>
<path d="M14.5355 21.0944C14.5355 21.6757 14.5437 22.2582 14.5332 22.8395C14.5156 23.8259 13.7435 24.587 12.7754 24.5846C11.8098 24.5835 11.0353 23.8189 11.0259 22.8325C11.0154 21.6687 11.0142 20.5049 11.0259 19.3423C11.0365 18.3571 11.8144 17.596 12.7825 17.5972C13.7505 17.5983 14.5167 18.3583 14.5332 19.3481C14.5437 19.9294 14.5355 20.5119 14.5355 21.0932V21.0944Z" fill="#FBBF2F"/>
<path d="M14.5359 31.6175C14.5359 32.1848 14.5441 32.7521 14.5336 33.3194C14.516 34.307 13.7463 35.068 12.7782 35.068C11.8125 35.068 11.0358 34.3035 11.0264 33.3183C11.0146 32.1545 11.0146 30.9907 11.0264 29.828C11.0358 28.8416 11.8125 28.0806 12.7806 28.0806C13.7498 28.0806 14.5172 28.8405 14.5336 29.8292C14.5441 30.4257 14.5359 31.0222 14.5359 31.6175Z" fill="#FBBF2F"/>
</g>
<defs>
<filter id="filter0_d_752_596" x="0" y="0" width="53" height="50.1875" filterUnits="userSpaceOnUse" color-interpolation-filters="sRGB">
<feFlood flood-opacity="0" result="BackgroundImageFix"/>
<feColorMatrix in="SourceAlpha" type="matrix" values="0 0 0 0 0 0 0 0 0 0 0 0 0 0 0 0 0 0 127 0" result="hardAlpha"/>
<feOffset dy="4"/>
<feGaussianBlur stdDeviation="2"/>
<feComposite in2="hardAlpha" operator="out"/>
<feColorMatrix type="matrix" values="0 0 0 0 0 0 0 0 0 0 0 0 0 0 0 0 0 0 0.25 0"/>
<feBlend mode="normal" in2="BackgroundImageFix" result="effect1_dropShadow_752_596"/>
<feBlend mode="normal" in="SourceGraphic" in2="effect1_dropShadow_752_596" result="shape"/>
</filter>
<clipPath id="clip0_752_596">
<rect width="45" height="42.1875" fill="white" transform="translate(4)"/>
</clipPath>
</defs>
</svg>
