<svg width="53" height="53" viewBox="0 0 53 53" fill="none" xmlns="http://www.w3.org/2000/svg">
<g filter="url(#filter0_d_752_593)">
<path d="M48.3909 5.36286C46.711 3.45444 44.8103 1.78808 42.6845 0.39195C41.611 -0.313154 40.2744 -0.0387126 39.5682 0.988684C38.8661 2.01045 39.1151 3.33621 40.1591 4.10747C40.4489 4.32139 40.7486 4.52124 41.075 4.75064C40.0972 5.72737 39.139 6.65625 38.2189 7.62172C37.9305 7.92431 37.7518 7.92572 37.4043 7.70758C32.5055 4.62679 27.2282 3.77814 21.6061 5.10812C19.4043 5.62886 17.3629 6.54366 15.4678 7.77935C15.3088 7.88209 15.1906 8.02283 14.9824 7.81032C13.9863 6.79418 12.9719 5.79634 11.9294 4.75627C12.3234 4.47339 12.6793 4.24539 13.0057 3.9808C13.7654 3.36577 14.0201 2.37637 13.6796 1.46157C13.3476 0.572096 12.5203 0.0105462 11.5622 0.0105462C11.1275 0.0105462 10.7279 0.120323 10.3678 0.358172C8.21659 1.78245 6.2835 3.46006 4.58255 5.39804C3.91989 6.15381 3.82422 7.18262 4.28709 7.99468C4.757 8.81942 5.63351 9.24304 6.60427 9.11497C7.31758 9.02067 7.82125 8.59001 8.23488 8.04957C8.46702 7.74557 8.60912 7.7695 8.86377 8.03409C9.7037 8.90808 10.5633 9.76518 11.4356 10.6082C11.679 10.8432 11.6776 10.9713 11.4525 11.2303C6.88566 16.4996 5.31414 22.5612 6.79139 29.3688C8.64429 37.9102 16.4681 44.539 25.1811 44.9697C31.9272 45.3032 37.59 42.9445 41.9655 37.7934C45.9105 33.1504 47.3765 27.7094 46.5113 21.6872C45.9401 17.7127 44.2461 14.2266 41.5575 11.2373C41.3366 10.9924 41.3071 10.8587 41.5632 10.6152C42.351 9.8637 43.1108 9.07978 43.8817 8.30994C44.2672 7.92431 44.6424 7.92901 45.0073 8.32401C45.9218 9.31482 47.3048 9.42178 48.253 8.57453C49.183 7.74557 49.2618 6.35085 48.3923 5.36286H48.3909ZM42.2399 24.7764C42.2272 33.4783 35.1561 40.5463 26.4839 40.5252C17.7892 40.5026 10.7518 33.4403 10.7617 24.7441C10.7715 16.0196 17.8553 8.96578 26.5697 9.00519C35.2433 9.04319 42.2525 16.097 42.2399 24.7764Z" fill="#FBBF2F"/>
<path d="M24.2639 20.2314C24.2639 18.7198 24.2471 17.2083 24.2696 15.6968C24.285 14.592 25.0996 13.6814 26.1379 13.5406C27.3057 13.3816 28.3327 14.0318 28.6619 15.1338C28.7492 15.4265 28.7421 15.7235 28.7421 16.0219C28.7435 18.4468 28.752 20.8731 28.7337 23.2981C28.7309 23.6851 28.8519 23.9441 29.122 24.2115C31.0213 26.0889 32.9052 27.9833 34.7918 29.8734C35.4615 30.5447 35.6655 31.347 35.3659 32.2421C35.0634 33.147 34.3923 33.641 33.4567 33.748C32.7743 33.8268 32.1665 33.603 31.6812 33.1189C29.4146 30.8614 27.1551 28.5983 24.897 26.3338C24.4398 25.875 24.2527 25.3092 24.2569 24.6618C24.2668 23.1855 24.2597 21.7091 24.2597 20.2328H24.2611L24.2639 20.2314Z" fill="#FBBF2F"/>
</g>
<defs>
<filter id="filter0_d_752_593" x="0" y="0" width="53" height="53.0007" filterUnits="userSpaceOnUse" color-interpolation-filters="sRGB">
<feFlood flood-opacity="0" result="BackgroundImageFix"/>
<feColorMatrix in="SourceAlpha" type="matrix" values="0 0 0 0 0 0 0 0 0 0 0 0 0 0 0 0 0 0 127 0" result="hardAlpha"/>
<feOffset dy="4"/>
<feGaussianBlur stdDeviation="2"/>
<feComposite in2="hardAlpha" operator="out"/>
<feColorMatrix type="matrix" values="0 0 0 0 0 0 0 0 0 0 0 0 0 0 0 0 0 0 0.25 0"/>
<feBlend mode="normal" in2="BackgroundImageFix" result="effect1_dropShadow_752_593"/>
<feBlend mode="normal" in="SourceGraphic" in2="effect1_dropShadow_752_593" result="shape"/>
</filter>
</defs>
</svg>
