<svg width="53" height="58" viewBox="0 0 53 58" fill="none" xmlns="http://www.w3.org/2000/svg">
<g clip-path="url(#clip0_752_613)" filter="url(#filter0_d_752_613)">
<path d="M38.0914 0.380101C37.4673 0.223438 36.8278 0.12456 36.1947 0H33.7921C33.4659 0.186198 33.0923 0.150243 32.743 0.223438C26.3699 1.55508 22.2465 7.38758 23.112 13.8519C23.9955 20.4484 30.3853 25.1727 36.969 24.0992C42.7425 23.1567 46.9878 18.3502 47.2125 12.501C47.4282 6.89062 43.5682 1.7554 38.0901 0.380101H38.0914ZM35.0262 20.8632C30.212 20.8285 26.33 16.8965 26.3583 12.0798C26.3866 7.21679 30.3314 3.32717 35.1982 3.36313C39.9816 3.39908 43.8995 7.39015 43.8532 12.1799C43.807 17.0237 39.8686 20.8979 35.0262 20.8632Z" fill="#FBBF2F"/>
<path d="M46.3701 26.8343C43.7081 25.9226 41.0898 26.0664 38.5292 27.2375C37.0936 27.895 35.6528 28.5422 34.2197 29.2073C33.9359 29.3396 33.8422 29.3345 33.7523 28.9852C33.299 27.2259 31.8325 25.8481 29.7702 25.9007C27.9313 25.9482 26.0886 25.8648 24.2485 25.8506C23.939 25.8481 23.6462 25.7877 23.3521 25.7158C21.6019 25.2908 19.8413 25.2022 18.077 25.6105C15.998 26.0921 14.2888 27.1848 12.8917 28.7862C12.7825 28.912 12.7183 29.1329 12.4512 28.9274C11.7937 28.4227 11.1029 28.4587 10.3915 28.8542C8.5924 29.8558 6.78178 30.8395 4.98015 31.8372C4.06842 32.3419 3.78206 33.1355 4.16602 34.1101C5.99333 38.7394 7.82449 43.3674 9.66079 47.9941C10.1102 49.128 11.1285 49.5042 12.1892 48.929C14.0409 47.9235 15.885 46.9026 17.7315 45.8881C18.2041 45.6288 18.5418 45.2589 18.633 44.7145C18.6766 44.4538 18.8025 44.3986 19.0516 44.4011C20.5245 44.4127 21.9974 44.4075 23.4703 44.4075C24.6067 44.4075 25.7445 44.3844 26.8809 44.4127C28.5593 44.4551 30.09 44.0172 31.5397 43.1774C36.5966 40.2483 41.6599 37.3282 46.7387 34.4363C47.6722 33.9047 48.2706 33.1432 48.6507 32.1891C49.5753 29.87 48.6109 27.5996 46.3701 26.833V26.8343ZM14.6381 43.7488C13.8984 44.1584 13.1523 44.5565 12.4204 44.9764C12.1854 45.1112 12.1058 45.0547 12.0133 44.821C10.6496 41.3513 9.27941 37.8829 7.90026 34.4183C7.80652 34.1821 7.86173 34.0857 8.06976 33.9753C8.81584 33.5798 9.55678 33.1702 10.2926 32.7554C10.4672 32.6565 10.5558 32.6398 10.6419 32.8607C12.0249 36.3753 13.4143 39.8861 14.8037 43.3982C14.8217 43.4432 14.841 43.4855 14.8577 43.5254C14.8589 43.6794 14.7292 43.6987 14.6381 43.7501V43.7488ZM45.6073 30.8549C45.4828 31.1733 45.2876 31.4302 44.9768 31.6087C39.8468 34.539 34.7218 37.4758 29.5943 40.4101C28.8431 40.8402 28.0392 41.0547 27.1686 41.0496C25.6957 41.0393 24.2228 41.047 22.7499 41.047C21.1332 41.047 19.5152 41.0393 17.8985 41.0547C17.5967 41.0573 17.4606 40.9712 17.3476 40.6823C16.3704 38.1705 15.3764 35.6639 14.3748 33.1625C14.2682 32.8979 14.2824 32.6937 14.4159 32.4472C16.1148 29.3126 19.1043 28.0863 22.782 29.0417C23.2212 29.156 23.6552 29.2112 24.1059 29.2151C25.9949 29.2317 27.8838 29.2587 29.7715 29.2844C30.3147 29.2921 30.5471 29.5887 30.5381 30.2449C30.5304 30.887 30.3095 31.1502 29.7676 31.1502C27.8787 31.1515 25.9897 31.1566 24.0995 31.1451C23.799 31.1425 23.6835 31.2042 23.6924 31.5329C23.7168 32.4125 23.7104 33.2934 23.695 34.1743C23.6899 34.4427 23.7631 34.5223 24.0379 34.5198C26.0873 34.5069 28.1368 34.5082 30.1863 34.5095C30.6768 34.5095 31.1468 34.4016 31.5731 34.1756C34.0708 32.853 36.7109 31.836 39.2573 30.6212C40.2294 30.1576 41.2028 29.7441 42.2904 29.6414C43.2972 29.5464 44.2693 29.6799 45.2195 29.9971C45.6767 30.1499 45.7833 30.4067 45.6073 30.8549Z" fill="#FBBF2F"/>
<path d="M32.2562 14.0264C32.9664 14.5144 33.6688 14.9163 34.4983 15.0255C34.5779 15.0357 34.6563 15.0511 34.7359 15.055C35.3125 15.0884 35.7825 14.8483 35.8903 14.4707C36.002 14.0778 35.7991 13.7298 35.2239 13.437C34.6845 13.1622 34.1157 12.9465 33.5776 12.6704C32.0444 11.8832 31.401 10.6042 31.7721 9.09537C32.0238 8.07321 32.6774 7.38491 33.6405 6.99968C33.9089 6.89309 33.9911 6.76083 33.9898 6.47961C33.9872 6.05584 33.7959 5.48826 34.0733 5.24556C34.3121 5.03753 34.8656 5.18521 35.2791 5.18392C36.3744 5.18135 36.3924 5.18392 36.3706 6.29598C36.3642 6.61444 36.4541 6.74414 36.7558 6.80192C37.2939 6.90594 37.7754 7.16276 38.2544 7.4183C38.447 7.52103 38.5369 7.61221 38.429 7.86133C38.1761 8.4456 37.9539 9.04529 37.7472 9.64883C37.656 9.91464 37.5648 9.90822 37.3478 9.77981C36.725 9.41127 36.0714 9.11335 35.3253 9.1172C34.967 9.11849 34.5844 9.13133 34.4688 9.56279C34.3558 9.98399 34.6807 10.1663 34.985 10.3179C35.5975 10.6235 36.2345 10.8854 36.8354 11.2129C38.6512 12.2042 39.2406 14.2627 38.1966 15.9012C37.8062 16.5138 37.2618 16.9491 36.585 17.2059C36.359 17.292 36.2807 17.405 36.2794 17.6528C36.2768 18.1112 36.4913 18.7238 36.1921 18.9831C35.9353 19.2066 35.3369 19.0448 34.89 19.0461C33.8768 19.0486 33.855 19.0461 33.8871 18.0367C33.8999 17.6156 33.8139 17.4255 33.3542 17.351C32.7224 17.2496 32.1458 16.9478 31.6206 16.5716C31.514 16.4958 31.3689 16.4534 31.4498 16.2415C31.7297 15.5147 31.984 14.7776 32.255 14.0238L32.2562 14.0264Z" fill="#FBBF2F"/>
</g>
<defs>
<filter id="filter0_d_752_613" x="0" y="0" width="53" height="57.4995" filterUnits="userSpaceOnUse" color-interpolation-filters="sRGB">
<feFlood flood-opacity="0" result="BackgroundImageFix"/>
<feColorMatrix in="SourceAlpha" type="matrix" values="0 0 0 0 0 0 0 0 0 0 0 0 0 0 0 0 0 0 127 0" result="hardAlpha"/>
<feOffset dy="4"/>
<feGaussianBlur stdDeviation="2"/>
<feComposite in2="hardAlpha" operator="out"/>
<feColorMatrix type="matrix" values="0 0 0 0 0 0 0 0 0 0 0 0 0 0 0 0 0 0 0.25 0"/>
<feBlend mode="normal" in2="BackgroundImageFix" result="effect1_dropShadow_752_613"/>
<feBlend mode="normal" in="SourceGraphic" in2="effect1_dropShadow_752_613" result="shape"/>
</filter>
<clipPath id="clip0_752_613">
<rect width="45" height="49.4996" fill="white" transform="translate(4)"/>
</clipPath>
</defs>
</svg>
